<svg width="16" height="15" viewBox="0 0 16 15" fill="none" xmlns="http://www.w3.org/2000/svg">
<path d="M2.6163 10.6549C2.5232 10.5619 2.47915 10.455 2.48415 10.3342C2.48915 10.2134 2.5332 10.1115 2.6163 10.0285L5.64285 6.96264C5.84975 6.75184 6.1059 6.64644 6.4113 6.64644C6.7166 6.64644 6.97465 6.75184 7.18545 6.96264L8.68425 8.47074C8.71895 8.50534 8.7613 8.52264 8.8113 8.52264C8.8613 8.52264 8.9055 8.50534 8.9439 8.47074L12.1794 5.27109H10.8501C10.7224 5.27109 10.6155 5.22804 10.5294 5.14194C10.4432 5.05574 10.4001 4.94879 10.4001 4.82109C10.4001 4.69339 10.4432 4.58649 10.5294 4.50039C10.6155 4.41419 10.7224 4.37109 10.8501 4.37109H13.1577C13.3124 4.37109 13.4414 4.42284 13.5448 4.52634C13.6483 4.62984 13.7001 4.75889 13.7001 4.91349V7.22109C13.7001 7.34879 13.657 7.45574 13.5708 7.54194C13.4847 7.62804 13.3778 7.67109 13.2501 7.67109C13.1224 7.67109 13.0155 7.62899 12.9294 7.54479C12.8432 7.46059 12.8001 7.35464 12.8001 7.22694V5.90334L9.57975 9.12384C9.37275 9.33074 9.1166 9.43419 8.8113 9.43419C8.5059 9.43419 8.24975 9.33074 8.04285 9.12384L6.5439 7.62489C6.5093 7.59029 6.4651 7.57299 6.4113 7.57299C6.3574 7.57299 6.31315 7.59029 6.27855 7.62489L3.24855 10.6549C3.16165 10.7419 3.05625 10.7854 2.93235 10.7854C2.80855 10.7854 2.7032 10.7419 2.6163 10.6549Z" fill="white"/>
</svg>
