<svg width="16" height="15" viewBox="0 0 16 15" fill="none" xmlns="http://www.w3.org/2000/svg">
<path d="M7.29286 13.1988C6.98977 13.1988 6.70321 13.135 6.43321 13.0073C6.16321 12.8796 5.93746 12.6961 5.75596 12.4569L2.89666 8.75884C2.83586 8.68424 2.80856 8.59884 2.81476 8.50264C2.82086 8.40654 2.85626 8.32619 2.92096 8.26159C3.07096 8.10159 3.25036 8.00544 3.45916 7.97314C3.66796 7.94074 3.86351 7.98034 4.04581 8.09194L5.50786 8.87659V4.12969C5.50786 4.00219 5.55101 3.89529 5.63731 3.80899C5.72351 3.72279 5.83041 3.67969 5.95801 3.67969C6.08561 3.67969 6.19402 3.72279 6.28321 3.80899C6.37241 3.89529 6.41701 4.00219 6.41701 4.12969V9.52939C6.41701 9.73639 6.32701 9.89164 6.14701 9.99514C5.96701 10.0986 5.78661 10.1 5.60581 9.99919L4.61581 9.48454L6.48736 11.9238C6.58586 12.0476 6.70586 12.1411 6.84736 12.2042C6.98896 12.2673 7.13747 12.2988 7.29286 12.2988H10.2443C10.6205 12.2988 10.9405 12.1679 11.2044 11.906C11.4682 11.644 11.6001 11.3249 11.6001 10.9488V8.68729C11.6001 8.48129 11.5305 8.30864 11.3912 8.16934C11.2518 8.03004 11.0791 7.96039 10.8732 7.96039H8.29786C8.17036 7.96039 8.06347 7.91724 7.97717 7.83094C7.89096 7.74464 7.84787 7.63774 7.84787 7.51024C7.84787 7.38264 7.89096 7.27579 7.97717 7.18969C8.06347 7.10349 8.17036 7.06039 8.29786 7.06039H10.8732C11.3251 7.06039 11.7092 7.21854 12.0255 7.53484C12.3419 7.85124 12.5001 8.23539 12.5001 8.68729V10.9484C12.5001 11.5702 12.2792 12.1007 11.8374 12.54C11.3957 12.9792 10.8647 13.1988 10.2443 13.1988H7.29286ZM7.91011 5.70454C7.78241 5.70454 7.67551 5.66144 7.58942 5.57524C7.50321 5.48904 7.46011 5.38219 7.46011 5.25469C7.46011 5.23079 7.47936 5.15579 7.51787 5.02969C7.59787 4.88969 7.65787 4.74719 7.69787 4.60219C7.73786 4.45719 7.75786 4.29969 7.75786 4.12969C7.75786 3.62969 7.58287 3.20469 7.23286 2.85469C6.88286 2.50469 6.45786 2.32969 5.95786 2.32969C5.45786 2.32969 5.03286 2.50469 4.68286 2.85469C4.33286 3.20469 4.15786 3.62969 4.15786 4.12969C4.15786 4.29969 4.17786 4.45719 4.21786 4.60219C4.25786 4.74719 4.31786 4.88969 4.39786 5.02969C4.42086 5.06719 4.43621 5.10469 4.44391 5.14219C4.45161 5.17969 4.45546 5.21724 4.45546 5.25484C4.45546 5.38234 4.41401 5.48919 4.33111 5.57539C4.24821 5.66149 4.14266 5.70454 4.01446 5.70454C3.93156 5.70454 3.85481 5.68224 3.78421 5.63764C3.71351 5.59304 3.65961 5.53729 3.62251 5.47039C3.50401 5.26959 3.41361 5.05654 3.35131 4.83124C3.28901 4.60584 3.25786 4.37144 3.25786 4.12804C3.25786 3.37984 3.52056 2.74309 4.04596 2.21779C4.57126 1.69239 5.20856 1.42969 5.95786 1.42969C6.70706 1.42969 7.34436 1.69239 7.86976 2.21779C8.39506 2.74309 8.65772 3.37984 8.65772 4.12804C8.65772 4.37144 8.62656 4.60584 8.56426 4.83124C8.50196 5.05654 8.41162 5.26959 8.29322 5.47039C8.25562 5.53729 8.20301 5.59304 8.13541 5.63764C8.06781 5.68224 7.99271 5.70454 7.91011 5.70454Z" fill="white"/>
</svg>
