<svg width="24" height="25" viewBox="0 0 24 25" fill="none" xmlns="http://www.w3.org/2000/svg">
<circle cx="12" cy="12.5" r="12" fill="#009006"/>
<path d="M11.2929 18.1988C10.9898 18.1988 10.7032 18.135 10.4332 18.0073C10.1632 17.8796 9.93746 17.6961 9.75596 17.4569L6.89666 13.7588C6.83586 13.6842 6.80856 13.5988 6.81476 13.5026C6.82086 13.4065 6.85626 13.3262 6.92096 13.2616C7.07096 13.1016 7.25036 13.0054 7.45916 12.9731C7.66796 12.9407 7.86351 12.9803 8.04581 13.0919L9.50786 13.8766V9.12969C9.50786 9.00219 9.55101 8.89529 9.63731 8.80899C9.72351 8.72279 9.83041 8.67969 9.95801 8.67969C10.0856 8.67969 10.194 8.72279 10.2832 8.80899C10.3724 8.89529 10.417 9.00219 10.417 9.12969V14.5294C10.417 14.7364 10.327 14.8916 10.147 14.9951C9.96701 15.0986 9.78661 15.1 9.60581 14.9992L8.61581 14.4845L10.4874 16.9238C10.5859 17.0476 10.7059 17.1411 10.8474 17.2042C10.989 17.2673 11.1375 17.2988 11.2929 17.2988H14.2443C14.6205 17.2988 14.9405 17.1679 15.2044 16.906C15.4682 16.644 15.6001 16.3249 15.6001 15.9488V13.6873C15.6001 13.4813 15.5305 13.3086 15.3912 13.1693C15.2518 13.03 15.0791 12.9604 14.8732 12.9604H12.2979C12.1704 12.9604 12.0635 12.9172 11.9772 12.8309C11.891 12.7446 11.8479 12.6377 11.8479 12.5102C11.8479 12.3826 11.891 12.2758 11.9772 12.1897C12.0635 12.1035 12.1704 12.0604 12.2979 12.0604H14.8732C15.3251 12.0604 15.7092 12.2185 16.0255 12.5348C16.3419 12.8512 16.5001 13.2354 16.5001 13.6873V15.9484C16.5001 16.5702 16.2792 17.1007 15.8374 17.54C15.3957 17.9792 14.8647 18.1988 14.2443 18.1988H11.2929ZM11.9101 10.7045C11.7824 10.7045 11.6755 10.6614 11.5894 10.5752C11.5032 10.489 11.4601 10.3822 11.4601 10.2547C11.4601 10.2308 11.4794 10.1558 11.5179 10.0297C11.5979 9.88969 11.6579 9.74719 11.6979 9.60219C11.7379 9.45719 11.7579 9.29969 11.7579 9.12969C11.7579 8.62969 11.5829 8.20469 11.2329 7.85469C10.8829 7.50469 10.4579 7.32969 9.95786 7.32969C9.45786 7.32969 9.03286 7.50469 8.68286 7.85469C8.33286 8.20469 8.15786 8.62969 8.15786 9.12969C8.15786 9.29969 8.17786 9.45719 8.21786 9.60219C8.25786 9.74719 8.31786 9.88969 8.39786 10.0297C8.42086 10.0672 8.43621 10.1047 8.44391 10.1422C8.45161 10.1797 8.45546 10.2172 8.45546 10.2548C8.45546 10.3823 8.41401 10.4892 8.33111 10.5754C8.24821 10.6615 8.14266 10.7045 8.01446 10.7045C7.93156 10.7045 7.85481 10.6822 7.78421 10.6376C7.71351 10.593 7.65961 10.5373 7.62251 10.4704C7.50401 10.2696 7.41361 10.0565 7.35131 9.83124C7.28901 9.60584 7.25786 9.37144 7.25786 9.12804C7.25786 8.37984 7.52056 7.74309 8.04596 7.21779C8.57126 6.69239 9.20856 6.42969 9.95786 6.42969C10.7071 6.42969 11.3444 6.69239 11.8698 7.21779C12.3951 7.74309 12.6577 8.37984 12.6577 9.12804C12.6577 9.37144 12.6266 9.60584 12.5643 9.83124C12.502 10.0565 12.4116 10.2696 12.2932 10.4704C12.2556 10.5373 12.203 10.593 12.1354 10.6376C12.0678 10.6822 11.9927 10.7045 11.9101 10.7045Z" fill="white"/>
</svg>
