<svg width="26" height="20" viewBox="0 0 26 20" fill="none" xmlns="http://www.w3.org/2000/svg">
<path d="M3.06405 20C2.39072 20 1.82072 19.7667 1.35405 19.3C0.887386 18.8333 0.654053 18.2632 0.654053 17.5897V2.41033C0.654053 1.73678 0.887386 1.16667 1.35405 0.7C1.82072 0.233333 2.39072 0 3.06405 0H18.2437C18.9171 0 19.4871 0.233333 19.9537 0.7C20.4204 1.16667 20.6537 1.73678 20.6537 2.41033V8.513L24.3154 4.85133C24.5121 4.65467 24.7329 4.60556 24.9781 4.704C25.2234 4.80222 25.3461 4.98978 25.3461 5.26667V14.7333C25.3461 15.0102 25.2234 15.1978 24.9781 15.296C24.7329 15.3944 24.5121 15.3453 24.3154 15.1487L20.6537 11.487V17.5897C20.6537 18.2632 20.4204 18.8333 19.9537 19.3C19.4871 19.7667 18.9171 20 18.2437 20H3.06405ZM3.06405 18H18.2437C18.3633 18 18.4615 17.9616 18.5384 17.8847C18.6155 17.8078 18.6541 17.7094 18.6541 17.5897V2.41033C18.6541 2.29056 18.6155 2.19222 18.5384 2.11533C18.4615 2.03845 18.3633 2 18.2437 2H3.06405C2.9445 2 2.84628 2.03845 2.76939 2.11533C2.6925 2.19222 2.65405 2.29056 2.65405 2.41033V17.5897C2.65405 17.7094 2.6925 17.8078 2.76939 17.8847C2.84628 17.9616 2.9445 18 3.06405 18Z" fill="#555555"/>
</svg>
