<svg width="32" height="32" viewBox="0 0 32 32" fill="none" xmlns="http://www.w3.org/2000/svg">
<path d="M8.05137 23.3333L5.38204 26.0023C5.00271 26.3819 4.56637 26.4679 4.07304 26.2603C3.57993 26.0525 3.33337 25.6785 3.33337 25.1383V5.74365C3.33337 5.07009 3.56671 4.49998 4.03337 4.03331C4.50004 3.56665 5.07015 3.33331 5.74371 3.33331H26.2564C26.9299 3.33331 27.5 3.56665 27.9667 4.03331C28.4334 4.49998 28.6667 5.07009 28.6667 5.74365V20.923C28.6667 21.5965 28.4334 22.1666 27.9667 22.6333C27.5 23.1 26.9299 23.3333 26.2564 23.3333H8.05137ZM7.20004 21.3333H26.2564C26.359 21.3333 26.453 21.2905 26.5384 21.205C26.6239 21.1196 26.6667 21.0256 26.6667 20.923V5.74365C26.6667 5.64098 26.6239 5.54698 26.5384 5.46165C26.453 5.37609 26.359 5.33331 26.2564 5.33331H5.74371C5.64104 5.33331 5.54704 5.37609 5.46171 5.46165C5.37615 5.54698 5.33337 5.64098 5.33337 5.74365V23.1796L7.20004 21.3333ZM9.33337 18.3333H17.3334C17.6172 18.3333 17.8547 18.2375 18.046 18.046C18.2376 17.8546 18.3334 17.6171 18.3334 17.3333C18.3334 17.0495 18.2376 16.812 18.046 16.6206C17.8547 16.4291 17.6172 16.3333 17.3334 16.3333H9.33337C9.0496 16.3333 8.81204 16.4291 8.62071 16.6206C8.42915 16.812 8.33337 17.0495 8.33337 17.3333C8.33337 17.6171 8.42915 17.8546 8.62071 18.046C8.81204 18.2375 9.0496 18.3333 9.33337 18.3333ZM9.33337 14.3333H22.6667C22.9505 14.3333 23.188 14.2375 23.3794 14.046C23.5709 13.8546 23.6667 13.6171 23.6667 13.3333C23.6667 13.0495 23.5709 12.812 23.3794 12.6206C23.188 12.4291 22.9505 12.3333 22.6667 12.3333H9.33337C9.0496 12.3333 8.81204 12.4291 8.62071 12.6206C8.42915 12.812 8.33337 13.0495 8.33337 13.3333C8.33337 13.6171 8.42915 13.8546 8.62071 14.046C8.81204 14.2375 9.0496 14.3333 9.33337 14.3333ZM9.33337 10.3333H22.6667C22.9505 10.3333 23.188 10.2375 23.3794 10.046C23.5709 9.85465 23.6667 9.61709 23.6667 9.33331C23.6667 9.04954 23.5709 8.81198 23.3794 8.62065C23.188 8.42909 22.9505 8.33331 22.6667 8.33331H9.33337C9.0496 8.33331 8.81204 8.42909 8.62071 8.62065C8.42915 8.81198 8.33337 9.04954 8.33337 9.33331C8.33337 9.61709 8.42915 9.85465 8.62071 10.046C8.81204 10.2375 9.0496 10.3333 9.33337 10.3333Z" fill="#304674"/>
</svg>
