<svg width="24" height="25" viewBox="0 0 24 25" fill="none" xmlns="http://www.w3.org/2000/svg">
<circle cx="12" cy="12.5" r="12" fill="#009006"/>
<path d="M8.41982 15.2988C8.244 15.2988 8.09671 15.2449 7.97796 15.1371C7.85939 15.0295 7.80011 14.891 7.80011 14.7217V9.87599C7.80011 9.70666 7.85958 9.56809 7.97853 9.46028C8.09768 9.35264 8.24448 9.29883 8.41895 9.29883C8.59362 9.29883 8.73734 9.35264 8.85012 9.46028C8.96271 9.56809 9.019 9.70666 9.019 9.87599V14.7217C9.019 14.891 8.96309 15.0295 8.85128 15.1371C8.73946 15.2449 8.59564 15.2988 8.41982 15.2988ZM10.9999 15.2988C10.8287 15.2988 10.6849 15.2429 10.5684 15.131C10.452 15.0191 10.3938 14.8827 10.3938 14.7217V9.85876C10.3938 9.70315 10.4504 9.57097 10.5638 9.46222C10.6772 9.35329 10.8148 9.29883 10.9767 9.29883H11.425C11.5412 9.29883 11.6437 9.32606 11.7324 9.38053C11.8209 9.43499 11.8893 9.50103 11.9377 9.57865L14.2711 13.33L14.2355 12.4667V9.87599C14.2355 9.70666 14.2914 9.56809 14.4032 9.46028C14.5151 9.35264 14.6589 9.29883 14.8347 9.29883C15.0105 9.29883 15.1548 9.35264 15.2676 9.46028C15.3802 9.56809 15.4365 9.70666 15.4365 9.87599V14.7836C15.4365 14.9241 15.3832 15.045 15.2766 15.1465C15.1698 15.2481 15.0426 15.2988 14.8951 15.2988H14.4773C14.3789 15.2988 14.293 15.2764 14.2193 15.2316C14.1455 15.1866 14.0834 15.1249 14.0331 15.0465L11.5305 11.0386L11.5837 11.9023V14.7325C11.5837 14.8935 11.5293 15.0281 11.4203 15.1363C11.3114 15.2446 11.1713 15.2988 10.9999 15.2988Z" fill="white"/>
</svg>
