<svg width="20" height="20" viewBox="0 0 20 20" fill="none" xmlns="http://www.w3.org/2000/svg">
<path d="M7.95838 12.9298L15.1571 5.73109C15.281 5.60707 15.426 5.54373 15.5921 5.54109C15.7582 5.53846 15.9059 5.60179 16.0353 5.73109C16.1646 5.8604 16.2292 6.00887 16.2292 6.17651C16.2292 6.34429 16.1646 6.49283 16.0353 6.62214L8.48567 14.1846C8.33498 14.3352 8.15921 14.4105 7.95838 14.4105C7.75755 14.4105 7.58178 14.3352 7.43109 14.1846L3.95192 10.7055C3.82803 10.5814 3.76692 10.4342 3.76859 10.2638C3.77012 10.0935 3.83553 9.94373 3.96484 9.81443C4.09414 9.68512 4.24262 9.62047 4.41025 9.62047C4.57803 9.62047 4.72657 9.68512 4.85588 9.81443L7.95838 12.9298Z" fill="#0E88FF"/>
</svg>
