<svg width="16" height="15" viewBox="0 0 16 15" fill="none" xmlns="http://www.w3.org/2000/svg">
<path d="M4.41982 10.2988C4.244 10.2988 4.09671 10.2449 3.97796 10.1371C3.85939 10.0295 3.80011 9.89099 3.80011 9.72167V4.87599C3.80011 4.70666 3.85958 4.56809 3.97853 4.46028C4.09768 4.35264 4.24448 4.29883 4.41895 4.29883C4.59362 4.29883 4.73734 4.35264 4.85012 4.46028C4.96271 4.56809 5.019 4.70666 5.019 4.87599V9.72167C5.019 9.89099 4.96309 10.0295 4.85128 10.1371C4.73946 10.2449 4.59564 10.2988 4.41982 10.2988ZM6.99988 10.2988C6.82869 10.2988 6.68487 10.2429 6.56843 10.131C6.45198 10.0191 6.39376 9.88266 6.39376 9.72167V4.85876C6.39376 4.70315 6.45044 4.57097 6.5638 4.46222C6.67716 4.35329 6.81481 4.29883 6.97675 4.29883H7.42498C7.54123 4.29883 7.64369 4.32606 7.73237 4.38053C7.82086 4.43499 7.8893 4.50103 7.93769 4.57865L10.2711 8.33004L10.2355 7.46667V4.87599C10.2355 4.70666 10.2914 4.56809 10.4032 4.46028C10.5151 4.35264 10.6589 4.29883 10.8347 4.29883C11.0105 4.29883 11.1548 4.35264 11.2676 4.46028C11.3802 4.56809 11.4365 4.70666 11.4365 4.87599V9.78364C11.4365 9.92406 11.3832 10.045 11.2766 10.1465C11.1698 10.2481 11.0426 10.2988 10.8951 10.2988H10.4773C10.3789 10.2988 10.293 10.2764 10.2193 10.2316C10.1455 10.1866 10.0834 10.1249 10.0331 10.0465L7.53053 6.03864L7.58373 6.90229V9.73251C7.58373 9.89349 7.52927 10.0281 7.42035 10.1363C7.31142 10.2446 7.17127 10.2988 6.99988 10.2988Z" fill="white"/>
</svg>
