<svg width="24" height="25" viewBox="0 0 24 25" fill="none" xmlns="http://www.w3.org/2000/svg">
<circle cx="12" cy="12.5" r="12" fill="#E23131"/>
<path d="M7.42863 15C6.74716 15 6.17492 14.7624 5.71191 14.2871C5.2489 13.8118 5.0116 13.2185 5 12.5071C5.00573 11.7957 5.24009 11.1999 5.7031 10.7199C6.1661 10.24 6.74271 10 7.43293 10C8.12314 10 8.70118 10.2391 9.16705 10.7173C9.63307 11.1955 9.86608 11.7874 9.86608 12.4929C9.86608 13.1983 9.63307 13.7925 9.16705 14.2755C8.70118 14.7585 8.12171 15 7.42863 15ZM7.42863 14.1203C7.86678 14.1203 8.23215 13.9653 8.52475 13.6554C8.81735 13.3455 8.96365 12.958 8.96365 12.4929C8.96365 12.0277 8.81968 11.6411 8.53175 11.333C8.24367 11.0248 7.87476 10.8706 7.42502 10.8706C6.98928 10.8706 6.62511 11.0248 6.33252 11.333C6.03992 11.6411 5.89362 12.0277 5.89362 12.4929C5.89362 12.958 6.03992 13.3455 6.33252 13.6554C6.62511 13.9653 6.99049 14.1203 7.42863 14.1203ZM12.6696 15C12.1159 15 11.6667 14.8091 11.322 14.4272C10.9771 14.0454 10.8047 13.5511 10.8047 12.9444V10.4584C10.8047 10.3311 10.8487 10.2229 10.9369 10.1336C11.025 10.0445 11.1346 10 11.2655 10C11.3964 10 11.5036 10.0428 11.5871 10.1283C11.6706 10.214 11.7123 10.324 11.7123 10.4584V12.9961C11.7123 13.3131 11.8047 13.5774 11.9894 13.7888C12.1741 14.0002 12.3995 14.1059 12.6656 14.1059C12.9317 14.1059 13.1537 14.0002 13.3316 13.7888C13.5096 13.5774 13.5985 13.3131 13.5985 12.9961V10.4584C13.5985 10.3311 13.644 10.2229 13.735 10.1336C13.8259 10.0445 13.9368 10 14.0679 10C14.1989 10 14.3061 10.0428 14.3895 10.1283C14.473 10.214 14.5147 10.324 14.5147 10.4584V12.9444C14.5147 13.5511 14.3423 14.0454 13.9974 14.4272C13.6527 14.8091 13.2101 15 12.6696 15ZM17.2336 15C17.1026 15 16.9917 14.9533 16.9007 14.8599C16.8097 14.7666 16.7641 14.6527 16.7641 14.5182V10.885H15.8638C15.7408 10.885 15.6393 10.8413 15.5593 10.7537C15.4795 10.6663 15.4395 10.5602 15.4395 10.4352C15.4395 10.3104 15.4795 10.2066 15.5593 10.1239C15.6393 10.0413 15.7408 10 15.8638 10H18.5758C18.6987 10 18.8001 10.0408 18.88 10.1225C18.96 10.2043 19 10.3082 19 10.434C19 10.5598 18.96 10.6663 18.88 10.7537C18.8001 10.8413 18.6987 10.885 18.5758 10.885H17.6804V14.5414C17.6804 14.6688 17.6401 14.7771 17.5595 14.8664C17.4787 14.9555 17.3701 15 17.2336 15Z" fill="white"/>
</svg>
