<svg width="16" height="15" viewBox="0 0 16 15" fill="none" xmlns="http://www.w3.org/2000/svg">
<path d="M3.42863 10C2.74716 10 2.17492 9.76237 1.71191 9.28711C1.2489 8.81184 1.0116 8.2185 1 7.50708C1.00573 6.79565 1.24009 6.19991 1.7031 5.71985C2.1661 5.23995 2.74271 5 3.43293 5C4.12314 5 4.70118 5.2391 5.16705 5.7173C5.63307 6.1955 5.86608 6.78738 5.86608 7.49292C5.86608 8.19832 5.63307 8.79251 5.16705 9.27551C4.70118 9.7585 4.12171 10 3.42863 10ZM3.42863 9.12031C3.86678 9.12031 4.23215 8.96534 4.52475 8.65541C4.81735 8.34547 4.96365 7.95798 4.96365 7.49292C4.96365 7.02771 4.81968 6.64107 4.53175 6.33299C4.24367 6.02476 3.87476 5.87064 3.42502 5.87064C2.98928 5.87064 2.62511 6.02476 2.33252 6.33299C2.03992 6.64107 1.89362 7.02771 1.89362 7.49292C1.89362 7.95798 2.03992 8.34547 2.33252 8.65541C2.62511 8.96534 2.99049 9.12031 3.42863 9.12031ZM8.66965 10C8.11594 10 7.66672 9.80907 7.32199 9.42723C6.97711 9.04538 6.80467 8.55109 6.80467 7.94437V5.45841C6.80467 5.33112 6.84874 5.22286 6.93688 5.13362C7.02502 5.04454 7.13456 5 7.26549 5C7.39642 5 7.50362 5.04276 7.58709 5.12829C7.67056 5.21397 7.7123 5.32401 7.7123 5.45841V7.9961C7.7123 8.31315 7.80466 8.57738 7.98938 8.7888C8.1741 9.00022 8.3995 9.10592 8.66558 9.10592C8.93166 9.10592 9.15367 9.00022 9.33161 8.7888C9.50955 8.57738 9.59852 8.31315 9.59852 7.9961V5.45841C9.59852 5.33112 9.64402 5.22286 9.73503 5.13362C9.82588 5.04454 9.93685 5 10.0679 5C10.1989 5 10.3061 5.04276 10.3895 5.12829C10.473 5.21397 10.5147 5.32401 10.5147 5.45841V7.94437C10.5147 8.55109 10.3423 9.04538 9.99742 9.42723C9.65269 9.80907 9.2101 10 8.66965 10ZM13.2336 10C13.1026 10 12.9917 9.95329 12.9007 9.85988C12.8097 9.76662 12.7641 9.65272 12.7641 9.51816V5.88503H11.8638C11.7408 5.88503 11.6393 5.84126 11.5593 5.75372C11.4795 5.66634 11.4395 5.56017 11.4395 5.43521C11.4395 5.3104 11.4795 5.20662 11.5593 5.12388C11.6393 5.04129 11.7408 5 11.8638 5H14.5758C14.6987 5 14.8001 5.04083 14.88 5.12249C14.96 5.2043 15 5.30816 15 5.43405C15 5.55978 14.96 5.66634 14.88 5.75372C14.8001 5.84126 14.6987 5.88503 14.5758 5.88503H13.6804V9.54136C13.6804 9.6688 13.6401 9.77714 13.5595 9.86637C13.4787 9.95546 13.3701 10 13.2336 10Z" fill="white"/>
</svg>
