<svg width="24" height="24" viewBox="0 0 24 24" fill="none" xmlns="http://www.w3.org/2000/svg">
<path d="M13.6667 6.7885V1.87817C13.6667 1.53017 13.7826 1.24128 14.0144 1.0115C14.2462 0.781503 14.5333 0.666504 14.8757 0.666504H22.1297C22.4724 0.666504 22.7586 0.781503 22.9884 1.0115C23.2184 1.24128 23.3334 1.53017 23.3334 1.87817V6.7885C23.3334 7.13628 23.2175 7.42506 22.9857 7.65484C22.754 7.88484 22.4669 7.99984 22.1244 7.99984H14.8704C14.5277 7.99984 14.2415 7.88484 14.0117 7.65484C13.7817 7.42506 13.6667 7.13628 13.6667 6.7885ZM0.666748 11.4665V1.86617C0.666748 1.52617 0.782637 1.24128 1.01441 1.0115C1.24619 0.781503 1.5333 0.666504 1.87575 0.666504H9.12975C9.47241 0.666504 9.75864 0.781503 9.98841 1.0115C10.2184 1.2415 10.3334 1.5265 10.3334 1.8665V11.4668C10.3334 11.8068 10.2175 12.0917 9.98575 12.3215C9.75397 12.5515 9.46686 12.6665 9.12441 12.6665H1.87041C1.52775 12.6665 1.24153 12.5515 1.01175 12.3215C0.781748 12.0915 0.666748 11.8065 0.666748 11.4665ZM13.6667 22.1332V12.5328C13.6667 12.1928 13.7826 11.9079 14.0144 11.6782C14.2462 11.4482 14.5333 11.3332 14.8757 11.3332H22.1297C22.4724 11.3332 22.7586 11.4482 22.9884 11.6782C23.2184 11.9082 23.3334 12.1932 23.3334 12.5332V22.1335C23.3334 22.4735 23.2175 22.7584 22.9857 22.9882C22.754 23.2182 22.4669 23.3332 22.1244 23.3332H14.8704C14.5277 23.3332 14.2415 23.2182 14.0117 22.9882C13.7817 22.7582 13.6667 22.4732 13.6667 22.1332ZM0.666748 22.1215V17.2112C0.666748 16.8634 0.782637 16.5746 1.01441 16.3448C1.24619 16.1148 1.5333 15.9998 1.87575 15.9998H9.12975C9.47241 15.9998 9.75864 16.1148 9.98841 16.3448C10.2184 16.5746 10.3334 16.8634 10.3334 17.2112V22.1215C10.3334 22.4695 10.2175 22.7584 9.98575 22.9882C9.75397 23.2182 9.46686 23.3332 9.12441 23.3332H1.87041C1.52775 23.3332 1.24153 23.2182 1.01175 22.9882C0.781748 22.7584 0.666748 22.4695 0.666748 22.1215ZM2.66675 10.6665H8.33341V2.6665H2.66675V10.6665ZM15.6667 21.3332H21.3334V13.3332H15.6667V21.3332ZM15.6667 5.99984H21.3334V2.6665H15.6667V5.99984ZM2.66675 21.3332H8.33341V17.9998H2.66675V21.3332Z" fill="#555555"/>
</svg>
