<svg width="16" height="15" viewBox="0 0 16 15" fill="none" xmlns="http://www.w3.org/2000/svg">
<path d="M12.1794 9.92821L8.9439 6.72856C8.9055 6.69396 8.8613 6.67666 8.8113 6.67666C8.7613 6.67666 8.71895 6.69396 8.68425 6.72856L7.18545 8.22751C6.97465 8.43821 6.7166 8.54356 6.4113 8.54356C6.1059 8.54356 5.84975 8.43821 5.64285 8.22751L2.6163 5.17666C2.5332 5.09366 2.48915 4.99081 2.48415 4.86811C2.47915 4.74541 2.5232 4.63751 2.6163 4.54441C2.7032 4.45751 2.80855 4.41406 2.93235 4.41406C3.05625 4.41406 3.16165 4.45751 3.24855 4.54441L6.27855 7.57441C6.31315 7.60901 6.3574 7.62631 6.4113 7.62631C6.4651 7.62631 6.5093 7.60901 6.5439 7.57441L8.04285 6.07561C8.24975 5.86871 8.5059 5.76526 8.8113 5.76526C9.1166 5.76526 9.37275 5.86871 9.57975 6.07561L12.8001 9.29596V7.97821C12.8001 7.85051 12.8432 7.74361 12.9294 7.65751C13.0155 7.57131 13.1224 7.52821 13.2501 7.52821C13.3778 7.52821 13.4847 7.57131 13.5708 7.65751C13.657 7.74361 13.7001 7.85051 13.7001 7.97821V10.286C13.7001 10.4406 13.6483 10.5696 13.5448 10.6731C13.4414 10.7765 13.3124 10.8282 13.1577 10.8282H10.8501C10.7224 10.8282 10.6155 10.7852 10.5294 10.6991C10.4432 10.6129 10.4001 10.5059 10.4001 10.3782C10.4001 10.2505 10.4432 10.1436 10.5294 10.0575C10.6155 9.97131 10.7224 9.92821 10.8501 9.92821H12.1794Z" fill="white"/>
</svg>
