<svg width="28" height="28" viewBox="0 0 28 28" fill="none" xmlns="http://www.w3.org/2000/svg">
<path d="M4.66675 14C4.66675 15.1412 4.85069 16.2118 5.21858 17.2119C5.58666 18.2117 6.10418 19.108 6.77112 19.9007C6.94029 20.1057 7.02857 20.3293 7.03596 20.5716C7.04354 20.8139 6.95682 21.0255 6.77579 21.2065C6.59476 21.3874 6.38194 21.4711 6.13733 21.4577C5.89291 21.4442 5.68622 21.3351 5.51725 21.1301C4.70058 20.1563 4.063 19.0671 3.6045 17.8623C3.146 16.6575 2.91675 15.3701 2.91675 14C2.91675 12.63 3.146 11.3395 3.6045 10.1287C4.063 8.91793 4.70058 7.83167 5.51725 6.86995C5.68622 6.665 5.89291 6.55582 6.13733 6.54241C6.38194 6.52899 6.59476 6.6127 6.77579 6.79353C6.95682 6.97456 7.04354 7.18621 7.03596 7.42849C7.02857 7.67077 6.94029 7.89438 6.77112 8.09932C6.10418 8.91152 5.58666 9.81753 5.21858 10.8174C4.85069 11.8174 4.66675 12.8783 4.66675 14ZM9.33342 14C9.33342 14.4922 9.40672 14.9581 9.55333 15.3977C9.69994 15.8375 9.90265 16.2436 10.1615 16.616C10.2989 16.8209 10.3666 17.0457 10.3645 17.2903C10.3621 17.5347 10.2704 17.7475 10.0894 17.9285C9.90858 18.1095 9.69401 18.1933 9.44571 18.1799C9.1974 18.1663 9.00442 18.0571 8.86675 17.8524C8.45842 17.3182 8.14244 16.7218 7.91883 16.063C7.69522 15.4042 7.58342 14.7166 7.58342 14C7.58342 13.2716 7.69522 12.581 7.91883 11.928C8.14244 11.2753 8.45842 10.6818 8.86675 10.1477C9.01628 9.94295 9.21218 9.83678 9.45446 9.8292C9.69693 9.82181 9.90858 9.90853 10.0894 10.0894C10.2704 10.2704 10.3621 10.4802 10.3645 10.7188C10.3666 10.9574 10.2989 11.1791 10.1615 11.3841C9.90265 11.7564 9.69994 12.1625 9.55333 12.6024C9.40672 13.042 9.33342 13.5079 9.33342 14ZM14.0001 15.75C13.5229 15.75 13.112 15.5777 12.7672 15.2329C12.4225 14.8882 12.2501 14.4772 12.2501 14C12.2501 13.5229 12.4225 13.1119 12.7672 12.7672C13.112 12.4224 13.5229 12.25 14.0001 12.25C14.4772 12.25 14.8882 12.4224 15.233 12.7672C15.5777 13.1119 15.7501 13.5229 15.7501 14C15.7501 14.4772 15.5777 14.8882 15.233 15.2329C14.8882 15.5777 14.4772 15.75 14.0001 15.75ZM18.6667 14C18.6667 13.5079 18.5934 13.042 18.4468 12.6024C18.3002 12.1625 18.0975 11.7564 17.8387 11.3841C17.7012 11.1791 17.6366 10.9543 17.6447 10.7097C17.6529 10.4653 17.7475 10.2526 17.9285 10.0716C18.1096 9.89054 18.3182 9.80674 18.5545 9.82016C18.7909 9.83377 18.9839 9.94295 19.1334 10.1477C19.5417 10.6818 19.8577 11.2753 20.0813 11.928C20.3049 12.581 20.4167 13.2716 20.4167 14C20.4167 14.7166 20.3049 15.4042 20.0813 16.063C19.8577 16.7218 19.5417 17.3182 19.1334 17.8524C18.9957 18.0571 18.8028 18.1633 18.5545 18.1709C18.3062 18.1783 18.0916 18.0915 17.9107 17.9107C17.7297 17.7297 17.638 17.5199 17.6357 17.2813C17.6336 17.0427 17.7012 16.8209 17.8387 16.616C18.0975 16.2436 18.3002 15.8375 18.4468 15.3977C18.5934 14.9581 18.6667 14.4922 18.6667 14ZM23.3334 14C23.3334 12.8662 23.1495 11.7994 22.7816 10.7996C22.4135 9.79974 21.896 8.89966 21.229 8.09932C21.0599 7.89438 20.9686 7.67077 20.9552 7.42849C20.9417 7.18621 21.0256 6.97456 21.2066 6.79353C21.3874 6.6127 21.6032 6.52899 21.8538 6.54241C22.1042 6.55582 22.3139 6.665 22.4829 6.86995C23.2996 7.83167 23.9372 8.91793 24.3957 10.1287C24.8542 11.3395 25.0834 12.63 25.0834 14C25.0834 15.3701 24.8542 16.6575 24.3957 17.8623C23.9372 19.0671 23.2996 20.1563 22.4829 21.1301C22.3139 21.3351 22.1073 21.4442 21.8628 21.4577C21.6182 21.4711 21.4054 21.3874 21.2244 21.2065C21.0433 21.0255 20.9566 20.8139 20.9642 20.5716C20.9716 20.3293 21.0599 20.1057 21.229 19.9007C21.896 19.0885 22.4135 18.1825 22.7816 17.1827C23.1495 16.1827 23.3334 15.1218 23.3334 14Z" fill="#005B90"/>
</svg>
