<svg width="24" height="25" viewBox="0 0 24 25" fill="none" xmlns="http://www.w3.org/2000/svg">
<circle cx="12" cy="12.5" r="12" fill="#E23131"/>
<path d="M9.0889 14.3102C9.4028 14.3102 9.6861 14.2183 9.9388 14.0344C10.1915 13.8506 10.3698 13.6098 10.4736 13.3121L10.6813 12.6625C10.8451 12.171 10.8022 11.7189 10.5526 11.3062C10.303 10.8935 9.94745 10.6871 9.48595 10.6871H7.3594L7.6444 13.0364C7.6944 13.3979 7.85575 13.7006 8.12845 13.9444C8.40105 14.1883 8.7212 14.3102 9.0889 14.3102ZM14.9113 14.3102C15.279 14.3102 15.5992 14.1883 15.8718 13.9444C16.1445 13.7006 16.3058 13.3979 16.3558 13.0364L16.6408 10.6871H14.5293C14.0678 10.6871 13.7113 10.895 13.4598 11.3108C13.2082 11.7265 13.1643 12.1802 13.3282 12.6718L13.5267 13.3121C13.6305 13.6098 13.8087 13.8506 14.0614 14.0344C14.3141 14.2183 14.5974 14.3102 14.9113 14.3102ZM9.0889 15.2102C8.4982 15.2102 7.98035 15.0148 7.53535 14.624C7.09035 14.2332 6.8317 13.7405 6.7594 13.1459L6.4501 10.6871H6.3463C6.2186 10.6871 6.11165 10.6441 6.02545 10.558C5.93935 10.4718 5.8963 10.3648 5.8963 10.2371C5.8963 10.1094 5.93935 10.0025 6.02545 9.91641C6.11165 9.83021 6.2186 9.78711 6.3463 9.78711H9.48595C9.87975 9.78711 10.2428 9.88791 10.5751 10.0895C10.9074 10.291 11.1728 10.5672 11.3713 10.918H12.6439C12.8424 10.5672 13.1078 10.291 13.4401 10.0895C13.7724 9.88791 14.1355 9.78711 14.5293 9.78711H17.6539C17.7816 9.78711 17.8886 9.83021 17.9748 9.91641C18.0609 10.0025 18.1039 10.1094 18.1039 10.2371C18.1039 10.3648 18.0609 10.4718 17.9748 10.558C17.8886 10.6441 17.7816 10.6871 17.6539 10.6871H17.5501L17.2408 13.1459C17.1685 13.7405 16.9099 14.2332 16.4649 14.624C16.0199 15.0148 15.502 15.2102 14.9113 15.2102C14.399 15.2102 13.9394 15.0641 13.5324 14.7718C13.1255 14.4795 12.8397 14.0922 12.6751 13.6099L12.4674 12.9694C12.4436 12.8879 12.4217 12.8029 12.4017 12.7144C12.3817 12.626 12.3617 12.4964 12.3417 12.3256H11.6586C11.6386 12.4764 11.6186 12.597 11.5986 12.6874C11.5786 12.7777 11.5567 12.8636 11.5329 12.9452L11.3251 13.5949C11.1643 14.0772 10.8795 14.467 10.4707 14.7643C10.0618 15.0616 9.6012 15.2102 9.0889 15.2102Z" fill="white"/>
</svg>
