<svg width="16" height="15" viewBox="0 0 16 15" fill="none" xmlns="http://www.w3.org/2000/svg">
<path d="M5.0889 9.31021C5.4028 9.31021 5.6861 9.21826 5.9388 9.03436C6.1915 8.85056 6.36975 8.60981 6.47355 8.31211L6.6813 7.66246C6.8451 7.17096 6.8022 6.71886 6.5526 6.30616C6.303 5.89346 5.94745 5.68711 5.48595 5.68711H3.3594L3.6444 8.03641C3.6944 8.39791 3.85575 8.70056 4.12845 8.94436C4.40105 9.18826 4.7212 9.31021 5.0889 9.31021ZM10.9113 9.31021C11.279 9.31021 11.5992 9.18826 11.8718 8.94436C12.1445 8.70056 12.3058 8.39791 12.3558 8.03641L12.6408 5.68711H10.5293C10.0678 5.68711 9.71125 5.89501 9.45975 6.31081C9.20815 6.72651 9.1643 7.18016 9.3282 7.67176L9.52665 8.31211C9.63045 8.60981 9.8087 8.85056 10.0614 9.03436C10.3141 9.21826 10.5974 9.31021 10.9113 9.31021ZM5.0889 10.2102C4.4982 10.2102 3.98035 10.0148 3.53535 9.62401C3.09035 9.23321 2.8317 8.74051 2.7594 8.14591L2.4501 5.68711H2.3463C2.2186 5.68711 2.11165 5.64406 2.02545 5.55796C1.93935 5.47176 1.8963 5.36481 1.8963 5.23711C1.8963 5.10941 1.93935 5.00251 2.02545 4.91641C2.11165 4.83021 2.2186 4.78711 2.3463 4.78711H5.48595C5.87975 4.78711 6.2428 4.88791 6.5751 5.08951C6.9074 5.29101 7.1728 5.56716 7.3713 5.91796H8.6439C8.8424 5.56716 9.1078 5.29101 9.4401 5.08951C9.7724 4.88791 10.1355 4.78711 10.5293 4.78711H13.6539C13.7816 4.78711 13.8886 4.83021 13.9748 4.91641C14.0609 5.00251 14.1039 5.10941 14.1039 5.23711C14.1039 5.36481 14.0609 5.47176 13.9748 5.55796C13.8886 5.64406 13.7816 5.68711 13.6539 5.68711H13.5501L13.2408 8.14591C13.1685 8.74051 12.9099 9.23321 12.4649 9.62401C12.0199 10.0148 11.502 10.2102 10.9113 10.2102C10.399 10.2102 9.93935 10.0641 9.53235 9.77176C9.12545 9.47946 8.8397 9.09216 8.6751 8.60986L8.46735 7.96936C8.44355 7.88786 8.42165 7.80286 8.40165 7.71436C8.38165 7.62596 8.36165 7.49636 8.34165 7.32556H7.65855C7.63855 7.47636 7.61855 7.59696 7.59855 7.68736C7.57855 7.77766 7.55665 7.86361 7.53285 7.94521L7.3251 8.59486C7.1643 9.07716 6.8795 9.46696 6.4707 9.76426C6.0618 10.0616 5.6012 10.2102 5.0889 10.2102Z" fill="white"/>
</svg>
