<svg width="16" height="15" viewBox="0 0 16 15" fill="none" xmlns="http://www.w3.org/2000/svg">
<g clip-path="url(#clip0_818_7000)">
<path d="M9.35592 14.3327C9.35592 14.5349 9.19199 14.6988 8.98974 14.6988H7.01034C6.80809 14.6988 6.64416 14.5349 6.64416 14.3327C6.64416 14.1304 6.80809 13.9665 7.01034 13.9665H8.98974C9.19199 13.9665 9.35592 14.1304 9.35592 14.3327ZM12.5861 10.8349V11.8898C12.5861 12.6734 11.9485 13.3109 11.1648 13.3109H4.83528C4.0517 13.3109 3.41418 12.6735 3.41418 11.8898V10.8349C3.41418 10.6327 3.57811 10.4687 3.78036 10.4687H3.87777C3.87691 10.4582 3.87642 10.4476 3.87642 10.4368V9.45556C3.87589 9.4338 3.87736 9.41219 3.8807 9.39095C3.889 9.33688 3.90914 9.28676 3.93839 9.24322C3.96707 9.2003 4.00507 9.16311 4.05097 9.13504C4.06956 9.1236 4.08921 9.1138 4.1098 9.10578C4.25481 9.04544 4.39896 8.98307 4.54128 8.91919V4.44515C4.54128 3.71779 5.00409 3.07885 5.66419 2.83303C5.66341 2.81301 5.66305 2.79299 5.66305 2.77281V1.86843C5.66301 1.00295 6.36713 0.298828 7.23257 0.298828H8.76747C9.63295 0.298828 10.337 1.00295 10.337 1.86843V2.77285C10.337 2.79299 10.3366 2.81305 10.3359 2.83299C10.5961 2.92974 10.8294 3.0885 11.0154 3.29482C11.0219 3.28261 11.0284 3.27045 11.0349 3.25824C11.1292 3.07938 11.3507 3.01083 11.5296 3.10526C11.7085 3.19961 11.777 3.42115 11.6826 3.60001C10.9972 4.89896 10.002 6.10255 8.72442 7.17728C7.7047 8.03508 6.54721 8.77602 5.27368 9.38709V10.4688H10.7265V6.06166C10.7265 5.85941 10.8904 5.69548 11.0927 5.69548C11.2949 5.69548 11.4588 5.85941 11.4588 6.06166V10.4687H12.2199C12.4221 10.4687 12.5861 10.6327 12.5861 10.8349ZM6.39536 2.77285C6.39536 2.8478 6.40525 2.9205 6.4238 2.98971C6.42677 2.99866 6.42942 3.00777 6.43166 3.01705C6.53638 3.35996 6.85577 3.6101 7.23253 3.6101H8.76743C9.14414 3.6101 9.46353 3.36004 9.56834 3.01717C9.57066 3.00777 9.5733 2.99854 9.57627 2.98951C9.59479 2.92038 9.60467 2.84775 9.60467 2.77285V1.86843C9.60467 1.40676 9.2291 1.03118 8.76743 1.03118H7.23253C6.7709 1.03118 6.39536 1.40676 6.39536 1.86843V2.77285ZM5.27364 8.56925C7.55957 7.40883 9.43729 5.79647 10.6102 3.9823C10.5039 3.78411 10.3355 3.63003 10.1355 3.54166C9.86608 4.01924 9.3538 4.34241 8.76743 4.34241H7.23253C6.6462 4.34241 6.13391 4.0192 5.86449 3.54162C5.51442 3.69623 5.27364 4.04768 5.27364 4.44515V8.56925ZM11.8537 11.2011H11.0982C11.0963 11.2011 11.0944 11.2011 11.0926 11.2011H4.90746C4.90563 11.2011 4.9038 11.2011 4.90193 11.2011H4.14654V11.8898C4.14654 12.2696 4.45551 12.5786 4.83528 12.5786H11.1648C11.5447 12.5786 11.8537 12.2696 11.8537 11.8898V11.2011Z" fill="white"/>
</g>
<defs>
<clipPath id="clip0_818_7000">
<rect width="14.4" height="14.4" fill="white" transform="translate(0.80011 0.298828)"/>
</clipPath>
</defs>
</svg>
