<svg width="24" height="25" viewBox="0 0 24 25" fill="none" xmlns="http://www.w3.org/2000/svg">
<circle cx="12" cy="12.5" r="12" fill="#E23131"/>
<g clip-path="url(#clip0_754_43102)">
<path d="M13.3559 19.3327C13.3559 19.5349 13.192 19.6988 12.9897 19.6988H11.0103C10.8081 19.6988 10.6442 19.5349 10.6442 19.3327C10.6442 19.1304 10.8081 18.9665 11.0103 18.9665H12.9897C13.192 18.9665 13.3559 19.1304 13.3559 19.3327ZM16.5861 15.8349V16.8898C16.5861 17.6734 15.9485 18.3109 15.1648 18.3109H8.83528C8.0517 18.3109 7.41418 17.6735 7.41418 16.8898V15.8349C7.41418 15.6327 7.57811 15.4687 7.78036 15.4687H7.87777C7.87691 15.4582 7.87642 15.4476 7.87642 15.4368V14.4556C7.87589 14.4338 7.87736 14.4122 7.8807 14.391C7.889 14.3369 7.90914 14.2868 7.93839 14.2432C7.96707 14.2003 8.00507 14.1631 8.05097 14.135C8.06956 14.1236 8.08921 14.1138 8.1098 14.1058C8.25481 14.0454 8.39896 13.9831 8.54128 13.9192V9.44515C8.54128 8.71779 9.00409 8.07885 9.66419 7.83303C9.66341 7.81301 9.66305 7.79299 9.66305 7.77281V6.86843C9.66301 6.00295 10.3671 5.29883 11.2326 5.29883H12.7675C13.6329 5.29883 14.337 6.00295 14.337 6.86843V7.77285C14.337 7.79299 14.3366 7.81305 14.3359 7.83299C14.5961 7.92974 14.8294 8.0885 15.0154 8.29482C15.0219 8.28261 15.0284 8.27045 15.0349 8.25824C15.1292 8.07938 15.3507 8.01083 15.5296 8.10526C15.7085 8.19961 15.777 8.42115 15.6826 8.60001C14.9972 9.89896 14.002 11.1026 12.7244 12.1773C11.7047 13.0351 10.5472 13.776 9.27368 14.3871V15.4688H14.7265V11.0617C14.7265 10.8594 14.8904 10.6955 15.0927 10.6955C15.2949 10.6955 15.4588 10.8594 15.4588 11.0617V15.4687H16.2199C16.4221 15.4687 16.5861 15.6327 16.5861 15.8349ZM10.3954 7.77285C10.3954 7.8478 10.4053 7.9205 10.4238 7.98971C10.4268 7.99866 10.4294 8.00777 10.4317 8.01705C10.5364 8.35996 10.8558 8.6101 11.2325 8.6101H12.7674C13.1441 8.6101 13.4635 8.36004 13.5683 8.01717C13.5707 8.00777 13.5733 7.99854 13.5763 7.98951C13.5948 7.92038 13.6047 7.84775 13.6047 7.77285V6.86843C13.6047 6.40676 13.2291 6.03118 12.7674 6.03118H11.2325C10.7709 6.03118 10.3954 6.40676 10.3954 6.86843V7.77285ZM9.27364 13.5693C11.5596 12.4088 13.4373 10.7965 14.6102 8.9823C14.5039 8.78411 14.3355 8.63003 14.1355 8.54166C13.8661 9.01924 13.3538 9.34241 12.7674 9.34241H11.2325C10.6462 9.34241 10.1339 9.0192 9.86449 8.54162C9.51442 8.69623 9.27364 9.04768 9.27364 9.44515V13.5693ZM15.8537 16.2011H15.0982C15.0963 16.2011 15.0944 16.2011 15.0926 16.2011H8.90746C8.90563 16.2011 8.9038 16.2011 8.90193 16.2011H8.14654V16.8898C8.14654 17.2696 8.45551 17.5786 8.83528 17.5786H15.1648C15.5447 17.5786 15.8537 17.2696 15.8537 16.8898V16.2011Z" fill="white"/>
</g>
<defs>
<clipPath id="clip0_754_43102">
<rect width="14.4" height="14.4" fill="white" transform="translate(4.80011 5.29883)"/>
</clipPath>
</defs>
</svg>
