<svg width="16" height="16" viewBox="0 0 16 16" fill="none" xmlns="http://www.w3.org/2000/svg">
<path d="M8.00002 13.9595C7.87013 13.9595 7.74024 13.9371 7.61035 13.8924C7.48035 13.8475 7.3628 13.778 7.25768 13.684C6.65946 13.1327 6.09963 12.5649 5.57818 11.9807C5.05685 11.3966 4.60368 10.8126 4.21868 10.2288C3.83357 9.64507 3.52885 9.06646 3.30452 8.49302C3.08018 7.91946 2.96802 7.36557 2.96802 6.83135C2.96802 5.2929 3.46563 4.0474 4.46085 3.09485C5.45618 2.14229 6.63591 1.66602 8.00002 1.66602C9.36413 1.66602 10.5438 2.14229 11.5392 3.09485C12.5344 4.0474 13.032 5.2929 13.032 6.83135C13.032 7.36557 12.9198 7.91835 12.6955 8.48968C12.4712 9.06113 12.1676 9.63979 11.7847 10.2257C11.4017 10.8116 10.9495 11.3955 10.4282 11.9775C9.90685 12.5596 9.34702 13.1263 8.74868 13.6775C8.64513 13.7715 8.52741 13.842 8.39552 13.889C8.26374 13.936 8.13191 13.9595 8.00002 13.9595ZM8.00118 7.90952C8.33285 7.90952 8.61641 7.7914 8.85185 7.55518C9.08741 7.31896 9.20518 7.03502 9.20518 6.70335C9.20518 6.37168 9.08707 6.08807 8.85085 5.85252C8.61463 5.61707 8.33063 5.49935 7.99885 5.49935C7.66718 5.49935 7.38363 5.61746 7.14818 5.85368C6.91263 6.0899 6.79485 6.3739 6.79485 6.70568C6.79485 7.03735 6.91296 7.32091 7.14918 7.55635C7.38541 7.79179 7.66941 7.90952 8.00118 7.90952Z" fill="#E23131"/>
</svg>
