<svg width="32" height="33" viewBox="0 0 32 33" fill="none" xmlns="http://www.w3.org/2000/svg">
<path d="M16 20.4335C15.8222 20.4335 15.6556 20.4058 15.5 20.3502C15.3444 20.2946 15.2 20.2002 15.0667 20.0669L8.93333 13.9335C8.68889 13.6891 8.56667 13.378 8.56667 13.0002C8.56667 12.6224 8.68889 12.3113 8.93333 12.0669C9.17778 11.8224 9.48889 11.7002 9.86667 11.7002C10.2444 11.7002 10.5556 11.8224 10.8 12.0669L16 17.2669L21.2 12.0669C21.4444 11.8224 21.7556 11.7002 22.1333 11.7002C22.5111 11.7002 22.8222 11.8224 23.0667 12.0669C23.3111 12.3113 23.4333 12.6224 23.4333 13.0002C23.4333 13.378 23.3111 13.6891 23.0667 13.9335L16.9333 20.0669C16.8 20.2002 16.6556 20.2946 16.5 20.3502C16.3444 20.4058 16.1778 20.4335 16 20.4335Z" fill="#0E88FF"/>
</svg>
