<svg width="21" height="20" viewBox="0 0 21 20" fill="none" xmlns="http://www.w3.org/2000/svg">
<path d="M16.58 13.6494L12.0546 10.6238C11.9403 10.5458 11.8559 10.4545 11.8013 10.3498C11.7468 10.2451 11.7196 10.1286 11.7196 10.0004C11.7196 9.87222 11.7468 9.75576 11.8013 9.65104C11.8559 9.54632 11.9403 9.455 12.0546 9.37708L16.58 6.35146C16.6442 6.30118 16.7126 6.2691 16.7852 6.25521C16.8579 6.24132 16.9289 6.23438 16.9984 6.23438C17.1992 6.23438 17.375 6.30278 17.5257 6.43958C17.6762 6.57625 17.7515 6.75896 17.7515 6.98771V13.0131C17.7515 13.2419 17.6762 13.4246 17.5257 13.5613C17.375 13.6981 17.1992 13.7665 16.9984 13.7665C16.9289 13.7665 16.8579 13.7595 16.7852 13.7456C16.7126 13.7317 16.6442 13.6997 16.58 13.6494ZM8.71149 13.6494L4.18607 10.6238C4.07163 10.5458 3.98719 10.4545 3.93274 10.3498C3.8783 10.2451 3.85107 10.1286 3.85107 10.0004C3.85107 9.87222 3.8783 9.75576 3.93274 9.65104C3.98719 9.54632 4.07163 9.455 4.18607 9.37708L8.71149 6.35146C8.77566 6.30118 8.84406 6.2691 8.9167 6.25521C8.98934 6.24132 9.06038 6.23438 9.12983 6.23438C9.33066 6.23438 9.50642 6.30278 9.65712 6.43958C9.80767 6.57625 9.88295 6.75896 9.88295 6.98771V13.0131C9.88295 13.2419 9.80767 13.4246 9.65712 13.5613C9.50642 13.6981 9.33066 13.7665 9.12983 13.7665C9.06038 13.7665 8.98934 13.7595 8.9167 13.7456C8.84406 13.7317 8.77566 13.6997 8.71149 13.6494ZM8.63316 12.0838V7.91708L5.49524 10.0004L8.63316 12.0838ZM16.5017 12.0838V7.91708L13.3638 10.0004L16.5017 12.0838Z" fill="#304674"/>
</svg>
