<svg width="20" height="20" viewBox="0 0 20 20" fill="none" xmlns="http://www.w3.org/2000/svg">
<path d="M7.0835 13.7032V6.29609C7.0835 6.07609 7.15884 5.89554 7.30954 5.75443C7.46009 5.61345 7.63586 5.54297 7.83683 5.54297C7.90086 5.54297 7.96704 5.55207 8.03537 5.57026C8.10384 5.58832 8.17009 5.61554 8.23412 5.65193L14.0641 9.36338C14.1786 9.44144 14.2643 9.53491 14.3214 9.6438C14.3786 9.75283 14.4072 9.87144 14.4072 9.99964C14.4072 10.1278 14.3786 10.2464 14.3214 10.3555C14.2643 10.4644 14.1786 10.5578 14.0641 10.6359L8.23412 14.3473C8.17009 14.3837 8.10384 14.411 8.03537 14.429C7.96704 14.4472 7.90086 14.4563 7.83683 14.4563C7.63586 14.4563 7.46009 14.3858 7.30954 14.2448C7.15884 14.1037 7.0835 13.9232 7.0835 13.7032ZM8.3335 12.7913L12.7245 9.99964L8.3335 7.20797V12.7913Z" fill="#304674"/>
</svg>
