<svg width="25" height="21" viewBox="0 0 25 21" fill="none" xmlns="http://www.w3.org/2000/svg">
<path d="M10.3333 9.58968C9.04992 9.58968 7.95136 9.13279 7.03759 8.21902C6.12359 7.30502 5.66658 6.20635 5.66658 4.92301C5.66658 3.63968 6.12359 2.54113 7.03759 1.62735C7.95136 0.713348 9.04992 0.256348 10.3333 0.256348C11.6166 0.256348 12.7151 0.713348 13.6289 1.62735C14.5429 2.54113 14.9999 3.63968 14.9999 4.92301C14.9999 6.20635 14.5429 7.30502 13.6289 8.21902C12.7151 9.13279 11.6166 9.58968 10.3333 9.58968ZM0.333252 17.718V16.7793C0.333252 16.106 0.507252 15.4962 0.855252 14.95C1.20303 14.4038 1.68036 13.9769 2.28725 13.6693C3.49058 13.0591 4.7377 12.5856 6.02858 12.2487C7.31947 11.912 8.64159 11.7437 9.99492 11.7437H10.1873C10.4706 11.7437 10.708 11.8433 10.8996 12.0427C11.0911 12.2422 11.1869 12.4833 11.1869 12.766C11.1869 13.0485 11.0911 13.2855 10.8996 13.477C10.708 13.6683 10.4706 13.764 10.1873 13.764H9.99492C8.79203 13.764 7.62681 13.9089 6.49925 14.1987C5.37147 14.4885 4.27336 14.9111 3.20492 15.4667C2.9487 15.6033 2.73936 15.7846 2.57692 16.0103C2.41447 16.2359 2.33325 16.4922 2.33325 16.7793V17.7437H10.1873C10.4706 17.7437 10.708 17.8396 10.8996 18.0313C11.0911 18.2229 11.1869 18.4605 11.1869 18.744C11.1869 19.0276 11.0911 19.265 10.8996 19.4563C10.708 19.6479 10.4706 19.7437 10.1873 19.7437H2.35892C1.79647 19.7437 1.31825 19.5467 0.924252 19.1527C0.530252 18.7585 0.333252 18.2802 0.333252 17.718ZM18.3383 19.959L18.1769 18.9613C17.8589 18.8673 17.5597 18.7443 17.2793 18.5924C16.999 18.4401 16.7324 18.2495 16.4793 18.0203L15.4873 18.3847C15.2753 18.4565 15.0704 18.452 14.8726 18.3713C14.675 18.2907 14.5209 18.1618 14.4103 17.9847L14.2333 17.6717C14.1204 17.4819 14.0799 17.2751 14.1119 17.0513C14.1439 16.8276 14.2476 16.6438 14.4229 16.5L15.2206 15.8667C15.1248 15.5213 15.0769 15.1811 15.0769 14.846C15.0769 14.5111 15.1248 14.171 15.2206 13.8257L14.4359 13.1667C14.2599 13.0265 14.1539 12.8491 14.1179 12.6347C14.0819 12.42 14.1204 12.2179 14.2333 12.0283L14.4306 11.695C14.5437 11.5177 14.6973 11.3887 14.8913 11.308C15.085 11.2276 15.2879 11.2232 15.4999 11.295L16.4793 11.659C16.7237 11.4299 16.9883 11.2415 17.2729 11.0937C17.5576 10.9457 17.8589 10.8247 18.1769 10.7307L18.3383 9.71268C18.3794 9.48713 18.4846 9.30557 18.6539 9.16801C18.823 9.03046 19.0204 8.96168 19.2459 8.96168H19.5999C19.8255 8.96168 20.0229 9.0339 20.1923 9.17835C20.3614 9.32279 20.4665 9.50779 20.5076 9.73335L20.6562 10.7307C20.9743 10.8247 21.2756 10.9491 21.5603 11.104C21.8447 11.2587 22.1091 11.4573 22.3536 11.7L23.2923 11.336C23.5178 11.2505 23.7324 11.2482 23.9359 11.3293C24.1393 11.4107 24.2969 11.5441 24.4089 11.7297L24.6009 12.0547C24.7129 12.2405 24.751 12.444 24.7153 12.6653C24.6793 12.8867 24.5732 13.0675 24.3972 13.2077L23.6126 13.8667C23.7084 14.1873 23.7563 14.5213 23.7563 14.8687C23.7563 15.216 23.7084 15.5487 23.6126 15.8667L24.4102 16.5C24.5863 16.6402 24.69 16.8197 24.7216 17.0383C24.7531 17.2572 24.7126 17.4616 24.5999 17.6513L24.4023 17.9847C24.2911 18.1618 24.1404 18.2907 23.9499 18.3713C23.7593 18.452 23.5579 18.4565 23.3459 18.3847L22.3536 18.0203C22.1007 18.2495 21.834 18.4401 21.5536 18.5924C21.2734 18.7443 20.9743 18.8673 20.6562 18.9613L20.5076 19.9793C20.4665 20.2051 20.3614 20.3868 20.1923 20.5243C20.0229 20.6619 19.8255 20.7307 19.5999 20.7307H19.2459C19.0204 20.7307 18.823 20.6585 18.6539 20.514C18.4846 20.3696 18.3794 20.1846 18.3383 19.959ZM19.4113 17.3847C20.1097 17.3847 20.7071 17.136 21.2036 16.6387C21.7003 16.1413 21.9486 15.5435 21.9486 14.845C21.9486 14.1466 21.6999 13.5491 21.2026 13.0527C20.7053 12.556 20.1074 12.3077 19.4089 12.3077C18.7107 12.3077 18.1133 12.5563 17.6166 13.0537C17.1199 13.551 16.8716 14.1489 16.8716 14.8473C16.8716 15.5456 17.1203 16.143 17.6176 16.6397C18.1149 17.1363 18.7128 17.3847 19.4113 17.3847ZM10.3333 7.58968C11.0666 7.58968 11.6944 7.32857 12.2166 6.80635C12.7388 6.28413 12.9999 5.65635 12.9999 4.92301C12.9999 4.18968 12.7388 3.5619 12.2166 3.03968C11.6944 2.51746 11.0666 2.25635 10.3333 2.25635C9.59992 2.25635 8.97214 2.51746 8.44992 3.03968C7.9277 3.5619 7.66658 4.18968 7.66658 4.92301C7.66658 5.65635 7.9277 6.28413 8.44992 6.80635C8.97214 7.32857 9.59992 7.58968 10.3333 7.58968Z" fill="#555555"/>
</svg>
