<svg width="32" height="32" viewBox="0 0 32 32" fill="none" xmlns="http://www.w3.org/2000/svg">
<path d="M16 26.0182C18.6085 23.6831 20.6046 21.4433 21.9884 19.2988C23.3721 17.1544 24.064 15.2762 24.064 13.6642C24.064 11.2335 23.2918 9.23527 21.7474 7.6695C20.2029 6.10372 18.2871 5.32083 16 5.32083C13.7129 5.32083 11.7971 6.10372 10.2527 7.6695C8.70826 9.23527 7.93604 11.2335 7.93604 13.6642C7.93604 15.2762 8.62792 17.1544 10.0117 19.2988C11.3955 21.4433 13.3916 23.6831 16 26.0182ZM16 27.9205C15.7403 27.9205 15.4805 27.8757 15.2207 27.7862C14.9607 27.6964 14.7256 27.5575 14.5154 27.3695C13.3189 26.2668 12.1993 25.1313 11.1564 23.9628C10.1137 22.7946 9.20737 21.6267 8.43737 20.4592C7.66715 19.2916 7.0577 18.1344 6.60904 16.9875C6.16037 15.8404 5.93604 14.7326 5.93604 13.6642C5.93604 10.5873 6.93126 8.09627 8.9217 6.19116C10.9124 4.28605 13.2718 3.3335 16 3.3335C18.7283 3.3335 21.0877 4.28605 23.0784 6.19116C25.0688 8.09627 26.064 10.5873 26.064 13.6642C26.064 14.7326 25.8397 15.8382 25.391 16.9808C24.9424 18.1237 24.3351 19.2811 23.5694 20.4528C22.8034 21.6246 21.899 22.7925 20.8564 23.9565C19.8137 25.1207 18.694 26.2541 17.4974 27.3565C17.2871 27.5445 17.05 27.6855 16.786 27.7795C16.5218 27.8735 16.2598 27.9205 16 27.9205ZM16 19.6668C17.1247 19.6668 18.1465 19.3997 19.0654 18.8655C19.9843 18.3313 20.724 17.6241 21.2847 16.7438C20.5496 16.1763 19.7337 15.7438 18.837 15.4465C17.9406 15.1489 16.9949 15.0002 16 15.0002C15.0051 15.0002 14.0595 15.1489 13.163 15.4465C12.2664 15.7438 11.4505 16.1763 10.7154 16.7438C11.276 17.6241 12.0158 18.3313 12.9347 18.8655C13.8536 19.3997 14.8754 19.6668 16 19.6668ZM16 13.0002C16.6478 13.0002 17.1987 12.7733 17.6527 12.3195C18.1065 11.8655 18.3334 11.3146 18.3334 10.6668C18.3334 10.0191 18.1065 9.46816 17.6527 9.01416C17.1987 8.56038 16.6478 8.3335 16 8.3335C15.3523 8.3335 14.8014 8.56038 14.3474 9.01416C13.8936 9.46816 13.6667 10.0191 13.6667 10.6668C13.6667 11.3146 13.8936 11.8655 14.3474 12.3195C14.8014 12.7733 15.3523 13.0002 16 13.0002Z" fill="#555555"/>
</svg>
