<svg width="32" height="32" viewBox="0 0 32 32" fill="none" xmlns="http://www.w3.org/2000/svg">
<path d="M7 25.1793C6.71667 25.1793 6.47922 25.0835 6.28767 24.892C6.09589 24.7002 6 24.4625 6 24.179C6 23.8956 6.09589 23.6582 6.28767 23.4666C6.47922 23.2753 6.71667 23.1796 7 23.1796H8.41033V13.2306C8.41033 11.4375 8.96378 9.85209 10.0707 8.47431C11.1773 7.09653 12.5982 6.21531 14.3333 5.83065V4.99998C14.3333 4.53709 14.4952 4.14354 14.819 3.81931C15.1428 3.49531 15.5359 3.33331 15.9983 3.33331C16.461 3.33331 16.8547 3.49531 17.1793 3.81931C17.5042 4.14354 17.6667 4.53709 17.6667 4.99998V5.83065C19.4018 6.21531 20.8227 7.09653 21.9293 8.47431C23.0362 9.85209 23.5897 11.4375 23.5897 13.2306V23.1796H25C25.2833 23.1796 25.5208 23.2754 25.7123 23.467C25.9041 23.6588 26 23.8964 26 24.18C26 24.4633 25.9041 24.7008 25.7123 24.8923C25.5208 25.0836 25.2833 25.1793 25 25.1793H7ZM15.9977 28.923C15.3343 28.923 14.7672 28.687 14.2963 28.215C13.8252 27.743 13.5897 27.1755 13.5897 26.5126H18.4103C18.4103 27.1778 18.1741 27.7458 17.7017 28.2166C17.2292 28.6875 16.6612 28.923 15.9977 28.923ZM10.4103 23.1796H21.5897V13.2306C21.5897 11.6871 21.044 10.3696 19.9527 9.27831C18.8611 8.18676 17.5436 7.64098 16 7.64098C14.4564 7.64098 13.1389 8.18676 12.0473 9.27831C10.956 10.3696 10.4103 11.6871 10.4103 13.2306V23.1796Z" fill="#0E88FF"/>
</svg>
