<svg width="24" height="24" viewBox="0 0 24 24" fill="none" xmlns="http://www.w3.org/2000/svg">
<path d="M8.69238 16.8205C6.41546 16.8205 4.48727 16.0307 2.90781 14.4513C1.32832 12.8718 0.538574 10.9436 0.538574 8.66668C0.538574 6.38977 1.32832 4.46157 2.90781 2.88208C4.48727 1.30261 6.41546 0.512878 8.69238 0.512878C10.9693 0.512878 12.8975 1.30261 14.477 2.88208C16.0565 4.46157 16.8462 6.38977 16.8462 8.66668C16.8462 9.61881 16.6864 10.5282 16.3667 11.3949C16.047 12.2615 15.6205 13.0154 15.0872 13.6564L22.759 21.3282C22.9436 21.5128 23.0381 21.7449 23.0423 22.0244C23.0466 22.3038 22.9522 22.5402 22.759 22.7333C22.5659 22.9265 22.3317 23.023 22.0565 23.023C21.7813 23.023 21.5471 22.9265 21.3539 22.7333L13.6821 15.0615C13.0154 15.6119 12.2488 16.0427 11.3821 16.3538C10.5154 16.6649 9.61886 16.8205 8.69238 16.8205ZM8.69238 14.8205C10.4103 14.8205 11.8655 14.2244 13.0578 13.0321C14.2501 11.8398 14.8462 10.3846 14.8462 8.66668C14.8462 6.94872 14.2501 5.49359 13.0578 4.30128C11.8655 3.10897 10.4103 2.51281 8.69238 2.51281C6.97442 2.51281 5.51929 3.10897 4.32697 4.30128C3.13469 5.49359 2.53854 6.94872 2.53854 8.66668C2.53854 10.3846 3.13469 11.8398 4.32697 13.0321C5.51929 14.2244 6.97442 14.8205 8.69238 14.8205Z" fill="#444444"/>
</svg>
