<svg width="40" height="40" viewBox="0 0 40 40" fill="none" xmlns="http://www.w3.org/2000/svg">
<path d="M18.1537 35.8327C17.5854 35.8327 17.0946 35.6441 16.6812 35.2668C16.2676 34.8899 16.016 34.4257 15.9262 33.8743L15.5192 30.7556C15.0728 30.6062 14.615 30.3968 14.1458 30.1277C13.6769 29.8582 13.2576 29.5698 12.8879 29.2623L9.99999 30.4898C9.47638 30.7206 8.95027 30.743 8.42166 30.5568C7.89277 30.371 7.48193 30.0335 7.18916 29.5443L5.31082 26.2877C5.01805 25.7985 4.93374 25.2809 5.05791 24.7348C5.1818 24.1889 5.46596 23.7387 5.91041 23.3839L8.40707 21.5089C8.36874 21.2612 8.34152 21.0123 8.32541 20.7623C8.3093 20.5123 8.30124 20.2632 8.30124 20.0152C8.30124 19.7782 8.3093 19.5374 8.32541 19.2927C8.34152 19.048 8.36874 18.7803 8.40707 18.4898L5.91041 16.6148C5.46596 16.26 5.18443 15.807 5.06582 15.2556C4.94721 14.7045 5.0343 14.1842 5.32707 13.6948L7.18916 10.4864C7.48193 10.0078 7.89277 9.67296 8.42166 9.48185C8.95027 9.29046 9.47638 9.31018 9.99999 9.54102L12.8717 10.7527C13.2736 10.4343 13.7026 10.1432 14.1587 9.87935C14.6149 9.61546 15.063 9.40338 15.5033 9.2431L15.9262 6.12435C16.016 5.57296 16.2676 5.10879 16.6812 4.73185C17.0946 4.35463 17.5854 4.16602 18.1537 4.16602H21.8462C22.4146 4.16602 22.9054 4.35463 23.3187 4.73185C23.7324 5.10879 23.984 5.57296 24.0737 6.12435L24.4808 9.25893C24.9808 9.4406 25.4332 9.65268 25.8379 9.89518C26.2429 10.1377 26.6517 10.4235 27.0642 10.7527L30.0162 9.54102C30.5396 9.31018 31.0657 9.29046 31.5946 9.48185C32.1235 9.67296 32.5342 10.0078 32.8267 10.4864L34.6892 13.711C34.9819 14.2002 35.0662 14.7178 34.9421 15.2639C34.8182 15.8098 34.534 16.26 34.0896 16.6148L31.5287 18.5377C31.5885 18.8068 31.6211 19.0585 31.6267 19.2927C31.6319 19.5266 31.6346 19.7621 31.6346 19.9993C31.6346 20.2257 31.6292 20.456 31.6183 20.6902C31.6078 20.9241 31.5694 21.1917 31.5033 21.4931L34.0158 23.3839C34.4603 23.7387 34.7472 24.1889 34.8767 24.7348C35.0058 25.2809 34.924 25.7985 34.6312 26.2877L32.7433 29.5281C32.4508 30.0175 32.0375 30.3552 31.5033 30.541C30.9692 30.7268 30.4403 30.7043 29.9167 30.4735L27.0642 29.246C26.6517 29.5752 26.2307 29.8663 25.8012 30.1193C25.3718 30.3727 24.9317 30.5795 24.4808 30.7398L24.0737 33.8743C23.984 34.4257 23.7324 34.8899 23.3187 35.2668C22.9054 35.6441 22.4146 35.8327 21.8462 35.8327H18.1537ZM18.3333 33.3327H21.6092L22.2083 28.8681C23.0589 28.6459 23.8361 28.3302 24.54 27.921C25.2442 27.5116 25.9232 26.9853 26.5771 26.3423L30.7179 28.0827L32.3592 25.2493L28.7437 22.5252C28.8826 22.0935 28.9771 21.6703 29.0271 21.2556C29.0774 20.8412 29.1025 20.4224 29.1025 19.9993C29.1025 19.5655 29.0774 19.1467 29.0271 18.7431C28.9771 18.3392 28.8826 17.9267 28.7437 17.5056L32.3908 14.7493L30.75 11.916L26.5608 13.6818C26.003 13.0857 25.3349 12.5591 24.5562 12.1018C23.7774 11.6446 22.9894 11.3209 22.1925 11.1306L21.6667 6.66602H18.3592L17.8075 11.1148C16.9572 11.3156 16.1721 11.6232 15.4521 12.0377C14.7318 12.4524 14.0447 12.9866 13.3908 13.6402L9.24999 11.916L7.60916 14.7493L11.2083 17.4318C11.0694 17.8274 10.9722 18.2388 10.9167 18.666C10.8611 19.0932 10.8333 19.543 10.8333 20.0152C10.8333 20.4491 10.8611 20.8743 10.9167 21.291C10.9722 21.7077 11.0642 22.1191 11.1925 22.5252L7.60916 25.2493L9.24999 28.0827L13.375 26.3327C14.0075 26.9821 14.6837 27.5142 15.4037 27.9289C16.124 28.3434 16.92 28.6617 17.7917 28.8839L18.3333 33.3327ZM20.0192 24.9993C21.4058 24.9993 22.5858 24.5127 23.5592 23.5393C24.5325 22.566 25.0192 21.386 25.0192 19.9993C25.0192 18.6127 24.5325 17.4327 23.5592 16.4593C22.5858 15.486 21.4058 14.9993 20.0192 14.9993C18.6153 14.9993 17.431 15.486 16.4662 16.4593C15.5015 17.4327 15.0192 18.6127 15.0192 19.9993C15.0192 21.386 15.5015 22.566 16.4662 23.5393C17.431 24.5127 18.6153 24.9993 20.0192 24.9993Z" fill="#0E88FF"/>
</svg>
