<svg width="24" height="25" viewBox="0 0 24 25" fill="none" xmlns="http://www.w3.org/2000/svg">
<circle cx="12" cy="12.5" r="12" fill="#009006"/>
<path d="M6.6163 15.6549C6.5232 15.5619 6.47915 15.455 6.48415 15.3342C6.48915 15.2134 6.5332 15.1115 6.6163 15.0285L9.64285 11.9626C9.84975 11.7518 10.1059 11.6464 10.4113 11.6464C10.7166 11.6464 10.9746 11.7518 11.1854 11.9626L12.6842 13.4707C12.7189 13.5053 12.7613 13.5226 12.8113 13.5226C12.8613 13.5226 12.9055 13.5053 12.9439 13.4707L16.1794 10.2711H14.8501C14.7224 10.2711 14.6155 10.228 14.5294 10.1419C14.4432 10.0557 14.4001 9.94879 14.4001 9.82109C14.4001 9.69339 14.4432 9.58649 14.5294 9.50039C14.6155 9.41419 14.7224 9.37109 14.8501 9.37109H17.1577C17.3124 9.37109 17.4414 9.42284 17.5448 9.52634C17.6483 9.62984 17.7001 9.75889 17.7001 9.91349V12.2211C17.7001 12.3488 17.657 12.4557 17.5708 12.5419C17.4847 12.628 17.3778 12.6711 17.2501 12.6711C17.1224 12.6711 17.0155 12.629 16.9294 12.5448C16.8432 12.4606 16.8001 12.3546 16.8001 12.2269V10.9033L13.5797 14.1238C13.3727 14.3307 13.1166 14.4342 12.8113 14.4342C12.5059 14.4342 12.2497 14.3307 12.0428 14.1238L10.5439 12.6249C10.5093 12.5903 10.4651 12.573 10.4113 12.573C10.3574 12.573 10.3131 12.5903 10.2785 12.6249L7.24855 15.6549C7.16165 15.7419 7.05625 15.7854 6.93235 15.7854C6.80855 15.7854 6.7032 15.7419 6.6163 15.6549Z" fill="white"/>
</svg>
