<svg width="21" height="20" viewBox="0 0 21 20" fill="none" xmlns="http://www.w3.org/2000/svg">
<path d="M13.4165 6.29682L13.4165 13.7039C13.4165 13.9239 13.3412 14.1045 13.1905 14.2456C13.0399 14.3865 12.8641 14.457 12.6632 14.457C12.5991 14.457 12.533 14.4479 12.4646 14.4297C12.3962 14.4117 12.3299 14.3845 12.2659 14.3481L6.43588 10.6366C6.32143 10.5586 6.23567 10.4651 6.17859 10.3562C6.12137 10.2472 6.09275 10.1286 6.09275 10.0004C6.09275 9.87217 6.12137 9.75356 6.17859 9.64453C6.23567 9.53564 6.32143 9.44217 6.43588 9.36411L12.2659 5.65266C12.3299 5.61627 12.3962 5.58905 12.4646 5.57099C12.533 5.5528 12.5991 5.5437 12.6632 5.5437C12.8641 5.5437 13.0399 5.61418 13.1905 5.75516C13.3412 5.89627 13.4165 6.07682 13.4165 6.29682ZM12.1665 7.2087L7.77546 10.0004L12.1665 12.792L12.1665 7.2087Z" fill="#304674"/>
</svg>
