<svg width="12" height="12" viewBox="0 0 12 12" fill="none" xmlns="http://www.w3.org/2000/svg">
<path d="M5.37504 6.62516H1.20837C1.03129 6.62516 0.882888 6.56523 0.763166 6.44537C0.643305 6.32551 0.583374 6.17704 0.583374 5.99995C0.583374 5.82273 0.643305 5.67433 0.763166 5.55475C0.882888 5.43502 1.03129 5.37516 1.20837 5.37516H5.37504V1.2085C5.37504 1.03141 5.43497 0.88301 5.55483 0.763288C5.67469 0.643427 5.82317 0.583496 6.00025 0.583496C6.17747 0.583496 6.32587 0.643427 6.44546 0.763288C6.56518 0.88301 6.62504 1.03141 6.62504 1.2085V5.37516H10.7917C10.9688 5.37516 11.1172 5.43509 11.2369 5.55495C11.3568 5.67482 11.4167 5.82329 11.4167 6.00037C11.4167 6.17759 11.3568 6.326 11.2369 6.44558C11.1172 6.5653 10.9688 6.62516 10.7917 6.62516H6.62504V10.7918C6.62504 10.9689 6.56511 11.1173 6.44525 11.237C6.32539 11.3569 6.17692 11.4168 5.99983 11.4168C5.82261 11.4168 5.67421 11.3569 5.55462 11.237C5.4349 11.1173 5.37504 10.9689 5.37504 10.7918V6.62516Z" fill="#304674"/>
</svg>
