<svg width="32" height="33" viewBox="0 0 32 33" fill="none" xmlns="http://www.w3.org/2000/svg">
<path d="M16 12.5665C16.1778 12.5665 16.3444 12.5942 16.5 12.6498C16.6556 12.7054 16.8 12.7998 16.9333 12.9331L23.0667 19.0665C23.3111 19.3109 23.4333 19.622 23.4333 19.9998C23.4333 20.3776 23.3111 20.6887 23.0667 20.9331C22.8222 21.1776 22.5111 21.2998 22.1333 21.2998C21.7556 21.2998 21.4444 21.1776 21.2 20.9331L16 15.7331L10.8 20.9331C10.5556 21.1776 10.2444 21.2998 9.86667 21.2998C9.48889 21.2998 9.17778 21.1776 8.93333 20.9331C8.68889 20.6887 8.56667 20.3776 8.56667 19.9998C8.56667 19.622 8.68889 19.3109 8.93333 19.0665L15.0667 12.9331C15.2 12.7998 15.3444 12.7054 15.5 12.6498C15.6556 12.5942 15.8222 12.5665 16 12.5665Z" fill="#0E88FF"/>
</svg>
