<svg width="24" height="25" viewBox="0 0 24 25" fill="none" xmlns="http://www.w3.org/2000/svg">
<circle cx="12" cy="12.5" r="12" fill="#E23131"/>
<path d="M16.1794 14.9282L12.9439 11.7286C12.9055 11.694 12.8613 11.6767 12.8113 11.6767C12.7613 11.6767 12.7189 11.694 12.6842 11.7286L11.1854 13.2275C10.9746 13.4382 10.7166 13.5436 10.4113 13.5436C10.1059 13.5436 9.84975 13.4382 9.64285 13.2275L6.6163 10.1767C6.5332 10.0937 6.48915 9.99081 6.48415 9.86811C6.47915 9.74541 6.5232 9.63751 6.6163 9.54441C6.7032 9.45751 6.80855 9.41406 6.93235 9.41406C7.05625 9.41406 7.16165 9.45751 7.24855 9.54441L10.2785 12.5744C10.3131 12.609 10.3574 12.6263 10.4113 12.6263C10.4651 12.6263 10.5093 12.609 10.5439 12.5744L12.0428 11.0756C12.2497 10.8687 12.5059 10.7653 12.8113 10.7653C13.1166 10.7653 13.3727 10.8687 13.5797 11.0756L16.8001 14.296V12.9782C16.8001 12.8505 16.8432 12.7436 16.9294 12.6575C17.0155 12.5713 17.1224 12.5282 17.2501 12.5282C17.3778 12.5282 17.4847 12.5713 17.5708 12.6575C17.657 12.7436 17.7001 12.8505 17.7001 12.9782V15.286C17.7001 15.4406 17.6483 15.5696 17.5448 15.6731C17.4414 15.7765 17.3124 15.8282 17.1577 15.8282H14.8501C14.7224 15.8282 14.6155 15.7852 14.5294 15.6991C14.4432 15.6129 14.4001 15.5059 14.4001 15.3782C14.4001 15.2505 14.4432 15.1436 14.5294 15.0575C14.6155 14.9713 14.7224 14.9282 14.8501 14.9282H16.1794Z" fill="white"/>
</svg>
