<svg width="20" height="20" viewBox="0 0 20 20" fill="none" xmlns="http://www.w3.org/2000/svg">
<path d="M2.74854 13.0131V6.98771C2.74854 6.75896 2.82381 6.57625 2.97437 6.43958C3.12506 6.30278 3.30083 6.23438 3.50166 6.23438C3.5711 6.23438 3.64215 6.24132 3.71479 6.25521C3.78742 6.2691 3.85583 6.30118 3.91999 6.35146L8.44541 9.37708C8.55972 9.455 8.64416 9.54632 8.69874 9.65104C8.75319 9.75576 8.78041 9.87222 8.78041 10.0004C8.78041 10.1286 8.75319 10.2451 8.69874 10.3498C8.64416 10.4545 8.55972 10.5458 8.44541 10.6238L3.91999 13.6494C3.85583 13.6997 3.78742 13.7317 3.71479 13.7456C3.64215 13.7595 3.5711 13.7665 3.50166 13.7665C3.30083 13.7665 3.12506 13.6981 2.97437 13.5613C2.82381 13.4246 2.74854 13.2419 2.74854 13.0131ZM10.6171 13.0131V6.98771C10.6171 6.75896 10.6924 6.57625 10.8429 6.43958C10.9936 6.30278 11.1694 6.23438 11.3702 6.23438C11.4396 6.23438 11.5107 6.24132 11.5833 6.25521C11.656 6.2691 11.7244 6.30118 11.7885 6.35146L16.314 9.37708C16.4284 9.455 16.5128 9.54632 16.5673 9.65104C16.6217 9.75576 16.649 9.87222 16.649 10.0004C16.649 10.1286 16.6217 10.2451 16.5673 10.3498C16.5128 10.4545 16.4284 10.5458 16.314 10.6238L11.7885 13.6494C11.7244 13.6997 11.656 13.7317 11.5833 13.7456C11.5107 13.7595 11.4396 13.7665 11.3702 13.7665C11.1694 13.7665 10.9936 13.6981 10.8429 13.5613C10.6924 13.4246 10.6171 13.2419 10.6171 13.0131ZM3.99833 12.0838L7.13624 10.0004L3.99833 7.91708V12.0838ZM11.8669 12.0838L15.0048 10.0004L11.8669 7.91708V12.0838Z" fill="#304674"/>
</svg>
