<svg width="28" height="20" viewBox="0 0 28 20" fill="none" xmlns="http://www.w3.org/2000/svg">
<path d="M0.397705 16.7793C0.397705 16.0922 0.575038 15.479 0.929705 14.9397C1.28437 14.4003 1.75804 13.9808 2.35071 13.681C3.61782 13.0612 4.89193 12.5833 6.17304 12.2473C7.45437 11.9116 8.86248 11.7437 10.3974 11.7437C11.9325 11.7437 13.3406 11.9116 14.6217 12.2473C15.903 12.5833 17.1773 13.0612 18.4444 13.681C19.037 13.9808 19.5107 14.4003 19.8654 14.9397C20.22 15.479 20.3974 16.0922 20.3974 16.7793V17.718C20.3974 18.2547 20.2004 18.7265 19.8064 19.1333C19.4124 19.5402 18.9342 19.7437 18.3717 19.7437H2.42304C1.86082 19.7437 1.38271 19.5467 0.988705 19.1527C0.594705 18.7585 0.397705 18.2802 0.397705 17.718V16.7793ZM25.577 19.7437H22.5487C22.7163 19.4377 22.844 19.112 22.932 18.7667C23.02 18.4213 23.064 18.0718 23.064 17.718V16.6153C23.064 15.7402 22.8498 14.9061 22.4214 14.113C21.9927 13.3201 21.3847 12.6398 20.5974 12.072C21.4914 12.2053 22.3402 12.4117 23.1437 12.691C23.947 12.9706 24.7137 13.3009 25.4437 13.682C26.1326 14.0496 26.6646 14.4828 27.0397 14.9817C27.4148 15.4803 27.6024 16.0249 27.6024 16.6153V17.718C27.6024 18.2802 27.4054 18.7585 27.0114 19.1527C26.6174 19.5467 26.1393 19.7437 25.577 19.7437ZM10.3974 9.58968C9.11404 9.58968 8.01548 9.13279 7.10171 8.21902C6.18793 7.30502 5.73104 6.20635 5.73104 4.92301C5.73104 3.63968 6.18793 2.54113 7.10171 1.62735C8.01548 0.713348 9.11404 0.256348 10.3974 0.256348C11.6807 0.256348 12.7794 0.713348 13.6934 1.62735C14.6072 2.54113 15.064 3.63968 15.064 4.92301C15.064 6.20635 14.6072 7.30502 13.6934 8.21902C12.7794 9.13279 11.6807 9.58968 10.3974 9.58968ZM21.91 4.92301C21.91 6.20635 21.4531 7.30502 20.5394 8.21902C19.6256 9.13279 18.527 9.58968 17.2437 9.58968C17.0933 9.58968 16.9018 9.57257 16.6694 9.53835C16.4367 9.50413 16.2453 9.46657 16.095 9.42568C16.6208 8.79346 17.0249 8.09213 17.3074 7.32168C17.5896 6.55124 17.7307 5.75124 17.7307 4.92168C17.7307 4.0919 17.5867 3.2949 17.2987 2.53068C17.0107 1.76668 16.6095 1.06335 16.095 0.420681C16.2864 0.352236 16.4778 0.307792 16.6694 0.287347C16.8607 0.266681 17.0522 0.256348 17.2437 0.256348C18.527 0.256348 19.6256 0.713348 20.5394 1.62735C21.4531 2.54113 21.91 3.63968 21.91 4.92301ZM2.39737 17.7437H18.3974V16.7793C18.3974 16.5009 18.3277 16.2531 18.1884 16.036C18.0493 15.8189 17.8284 15.6291 17.5257 15.4667C16.4284 14.9009 15.2985 14.4722 14.136 14.1807C12.9736 13.8893 11.7274 13.7437 10.3974 13.7437C9.0676 13.7437 7.82148 13.8893 6.65904 14.1807C5.49659 14.4722 4.36671 14.9009 3.26937 15.4667C2.96671 15.6291 2.74571 15.8189 2.60637 16.036C2.46704 16.2531 2.39737 16.5009 2.39737 16.7793V17.7437ZM10.3974 7.58968C11.1307 7.58968 11.7585 7.32857 12.2807 6.80635C12.8029 6.28413 13.064 5.65635 13.064 4.92301C13.064 4.18968 12.8029 3.5619 12.2807 3.03968C11.7585 2.51746 11.1307 2.25635 10.3974 2.25635C9.66404 2.25635 9.03626 2.51746 8.51404 3.03968C7.99182 3.5619 7.73071 4.18968 7.73071 4.92301C7.73071 5.65635 7.99182 6.28413 8.51404 6.80635C9.03626 7.32857 9.66404 7.58968 10.3974 7.58968Z" fill="#555555"/>
</svg>
