<svg width="32" height="32" viewBox="0 0 32 32" fill="none" xmlns="http://www.w3.org/2000/svg">
<path d="M15.9854 23.487C16.366 23.487 16.6876 23.3556 16.95 23.093C17.2125 22.8301 17.3437 22.5082 17.3437 22.1273C17.3437 21.7466 17.2123 21.4251 16.9494 21.1626C16.6865 20.9004 16.3647 20.7693 15.984 20.7693C15.6034 20.7693 15.2818 20.9008 15.0194 21.1636C14.7569 21.4265 14.6257 21.7483 14.6257 22.129C14.6257 22.5096 14.7572 22.8312 15.02 23.0936C15.2829 23.3559 15.6047 23.487 15.9854 23.487ZM16.0024 28.6666C14.2504 28.6666 12.6036 28.3342 11.062 27.6693C9.52048 27.0044 8.1796 26.1021 7.03937 24.9623C5.89915 23.8225 4.99637 22.4822 4.33104 20.9413C3.66593 19.4004 3.33337 17.7541 3.33337 16.0023C3.33337 14.2503 3.66582 12.6035 4.33071 11.062C4.9956 9.52042 5.89793 8.17954 7.03771 7.03931C8.17749 5.89909 9.51782 4.99631 11.0587 4.33098C12.5996 3.66587 14.2459 3.33331 15.9977 3.33331C17.7497 3.33331 19.3965 3.66576 20.938 4.33065C22.4796 4.99553 23.8205 5.89787 24.9607 7.03765C26.1009 8.17742 27.0037 9.51776 27.669 11.0586C28.3342 12.5995 28.6667 14.2459 28.6667 15.9976C28.6667 17.7496 28.3343 19.3964 27.6694 20.938C27.0045 22.4795 26.1022 23.8204 24.9624 24.9606C23.8226 26.1009 22.4823 27.0036 20.9414 27.669C19.4005 28.3341 17.7542 28.6666 16.0024 28.6666ZM16 26.6666C18.9778 26.6666 21.5 25.6333 23.5667 23.5666C25.6334 21.5 26.6667 18.9778 26.6667 16C26.6667 13.0222 25.6334 10.5 23.5667 8.43331C21.5 6.36665 18.9778 5.33331 16 5.33331C13.0223 5.33331 10.5 6.36665 8.43337 8.43331C6.36671 10.5 5.33337 13.0222 5.33337 16C5.33337 18.9778 6.36671 21.5 8.43337 23.5666C10.5 25.6333 13.0223 26.6666 16 26.6666ZM16.108 10.2923C16.7232 10.2923 17.2555 10.486 17.705 10.8733C18.1548 11.2606 18.3797 11.7448 18.3797 12.3256C18.3797 12.8145 18.236 13.2521 17.9487 13.6383C17.6616 14.0248 17.3334 14.3846 16.964 14.718C16.48 15.1473 16.0539 15.6196 15.6857 16.135C15.3175 16.6501 15.1206 17.2239 15.095 17.8563C15.0864 18.0992 15.1718 18.3026 15.3514 18.4666C15.5309 18.6306 15.7403 18.7126 15.9794 18.7126C16.2358 18.7126 16.4529 18.6272 16.6307 18.4563C16.8085 18.2854 16.9222 18.0761 16.9717 17.8283C17.0606 17.3701 17.2499 16.962 17.5397 16.604C17.8295 16.2458 18.1434 15.9052 18.4814 15.5823C18.9674 15.1085 19.3915 14.5921 19.7537 14.033C20.1162 13.4736 20.2974 12.8499 20.2974 12.1616C20.2974 11.1052 19.8812 10.2372 19.0487 9.55765C18.2163 8.87831 17.2445 8.53865 16.1334 8.53865C15.3403 8.53865 14.5924 8.7142 13.8897 9.06531C13.1873 9.41665 12.6403 9.92909 12.2487 10.6026C12.1274 10.8095 12.0885 11.0272 12.132 11.2556C12.1754 11.4843 12.2926 11.6579 12.4837 11.7763C12.727 11.9116 12.9769 11.9503 13.2334 11.8923C13.4898 11.8341 13.7077 11.688 13.887 11.454C14.1573 11.1035 14.4843 10.8223 14.868 10.6103C15.2518 10.3983 15.6652 10.2923 16.108 10.2923Z" fill="#444444"/>
</svg>
