<svg xmlns="http://www.w3.org/2000/svg" width="278" height="62" viewBox="0 0 278 62" fill="none"><path d="M13.5393 0.296634L6.68748 6.65929C6.51113 6.82305 6.50092 7.09877 6.66468 7.27513L10.5873 11.4993C10.7511 11.6757 11.0268 11.6859 11.2031 11.5221L18.055 5.15947C18.2313 4.99571 18.2415 4.71999 18.0778 4.54364L14.1551 0.31943C13.9914 0.143077 13.7157 0.132872 13.5393 0.296634Z" fill="#0E89FF"></path><path d="M18.4827 5.61841L11.6308 11.9811C11.4545 12.1448 11.4443 12.4206 11.608 12.5969L15.5307 16.8211C15.6944 16.9975 15.9702 17.0077 16.1465 16.8439L22.9983 10.4812C23.1747 10.3175 23.1849 10.0418 23.0211 9.86541L19.0985 5.64121C18.9347 5.46485 18.659 5.45465 18.4827 5.61841Z" fill="#0E89FF"></path><path d="M23.5095 11.0295L16.6577 17.3922C16.4813 17.556 16.4711 17.8317 16.6349 18.008L20.5575 22.2322C20.7213 22.4086 20.997 22.4188 21.1734 22.255L28.0252 15.8924C28.2015 15.7286 28.2117 15.4529 28.048 15.2765L24.1254 11.0523C23.9616 10.876 23.6859 10.8658 23.5095 11.0295Z" fill="#0E89FF"></path><path d="M38.8669 28.8145L32.0151 35.1771C31.8388 35.3409 31.8286 35.6166 31.9923 35.7929L35.9149 40.0172C36.0787 40.1935 36.3544 40.2037 36.5308 40.04L43.3826 33.6773C43.559 33.5135 43.5692 33.2378 43.4054 33.0615L39.4828 28.8373C39.319 28.6609 39.0433 28.6507 38.8669 28.8145Z" fill="#0E89FF"></path><path d="M31.209 14.3448L19.853 24.8923C19.6325 25.097 19.6273 25.4488 19.8373 25.6745L23.1291 31.8277L29.1877 35.7495C29.3977 35.9753 29.7495 35.9963 29.97 35.7915L41.326 25.244C41.5465 25.0393 41.5517 24.6875 41.3417 24.4618L37.6771 18.5921L31.9913 14.392C31.7813 14.1663 31.4295 14.1453 31.209 14.35V14.3448Z" fill="#0E89FF"></path><path d="M43.8103 34.1367L36.9585 40.4994C36.7821 40.6631 36.7719 40.9389 36.9357 41.1152L40.8583 45.3394C41.0221 45.5158 41.2978 45.526 41.4741 45.3622L48.326 38.9996C48.5023 38.8358 48.5125 38.5601 48.3488 38.3837L44.4261 34.1595C44.2624 33.9832 43.9867 33.973 43.8103 34.1367Z" fill="#0E89FF"></path><path d="M48.8372 39.5479L41.9853 45.9105C41.809 46.0743 41.7988 46.35 41.9625 46.5263L45.8852 50.7506C46.0489 50.9269 46.3246 50.9371 46.501 50.7733L53.3528 44.4107C53.5292 44.2469 53.5394 43.9712 53.3756 43.7949L49.453 39.5707C49.2892 39.3943 49.0135 39.3841 48.8372 39.5479Z" fill="#0E89FF"></path><path fill-rule="evenodd" clip-rule="evenodd" d="M7.8774 44.8378C2.31619 38.4931 -0.283312 30.582 0.0244224 22.9216L2.7313 23.0304C2.45102 30.0073 4.81813 37.2376 9.91465 43.0521C15.0107 48.8662 21.8701 52.1558 28.827 52.7864L28.5824 55.4844C20.944 54.792 13.4391 51.183 7.8774 44.8378ZM12.9798 40.9878C8.88718 36.2549 7.0252 30.3535 7.34944 24.6682L10.0541 24.8224C9.76933 29.8158 11.4039 35.0237 15.029 39.2159C18.6589 43.4077 23.5771 45.7711 28.5567 46.2131L28.3172 48.9115C22.6499 48.4085 17.0786 45.7215 12.9804 40.9885L12.9798 40.9878ZM28.1513 42.4698C19.9982 41.7589 13.38 34.4757 13.6059 26.5234L16.3139 26.6003C16.1303 33.0647 21.6083 39.1799 28.3866 39.771L28.1513 42.4698Z" fill="#0E89FF"></path><path d="M81.2538 14.8855V20.2616H69.7875V26.3885H78.6445V31.5284H69.7875V42.8371H63.0254V14.8855H81.2538Z" fill="black"></path><path d="M91.8906 13.5781V42.8423H85.1284V13.5781H91.8906Z" fill="black"></path><path d="M117.71 33.035H102.406C102.485 34.694 102.905 35.891 103.672 36.6155C104.438 37.34 105.409 37.7023 106.596 37.7023C107.599 37.7023 108.428 37.4503 109.09 36.9515C109.746 36.4528 110.182 35.807 110.397 35.0142H117.553C117.264 36.5683 116.629 37.9596 115.652 39.1881C114.676 40.4114 113.437 41.3774 111.935 42.0757C110.434 42.7739 108.759 43.1257 106.911 43.1257C104.748 43.1257 102.832 42.6689 101.157 41.7606C99.4821 40.8524 98.1696 39.5398 97.2245 37.8283C96.2743 36.1168 95.8018 34.1112 95.8018 31.8169C95.8018 29.5226 96.269 27.4856 97.2035 25.7845C98.1381 24.0835 99.4506 22.7815 101.136 21.868C102.821 20.9597 104.748 20.5029 106.911 20.5029C109.074 20.5029 111.022 20.9492 112.686 21.847C114.345 22.7447 115.631 23.9995 116.54 25.6218C117.448 27.2441 117.905 29.1079 117.905 31.2184C117.905 31.7697 117.836 32.3787 117.705 33.035H117.71ZM109.898 26.9238C109.095 26.1993 108.098 25.837 106.911 25.837C105.724 25.837 104.643 26.2046 103.824 26.9448C103.005 27.6851 102.543 28.7614 102.438 30.1894H111.059C111.085 28.7404 110.696 27.6536 109.893 26.9291L109.898 26.9238Z" fill="black"></path><path d="M142.585 33.035H127.281C127.36 34.694 127.78 35.891 128.547 36.6155C129.313 37.34 130.284 37.7023 131.471 37.7023C132.474 37.7023 133.303 37.4503 133.965 36.9515C134.621 36.4528 135.057 35.807 135.272 35.0142H142.428C142.139 36.5683 141.504 37.9596 140.527 39.1881C139.551 40.4114 138.312 41.3774 136.81 42.0757C135.309 42.7739 133.634 43.1257 131.786 43.1257C129.623 43.1257 127.707 42.6689 126.032 41.7606C124.357 40.8524 123.045 39.5398 122.1 37.8283C121.149 36.1168 120.677 34.1112 120.677 31.8169C120.677 29.5226 121.144 27.4856 122.079 25.7845C123.013 24.0835 124.326 22.7815 126.011 21.868C127.696 20.9597 129.623 20.5029 131.786 20.5029C133.949 20.5029 135.897 20.9492 137.561 21.847C139.22 22.7447 140.506 23.9995 141.415 25.6218C142.323 27.2441 142.78 29.1079 142.78 31.2184C142.78 31.7697 142.711 32.3787 142.58 33.035H142.585ZM134.773 26.9238C133.97 26.1993 132.973 25.837 131.786 25.837C130.599 25.837 129.518 26.2046 128.699 26.9448C127.88 27.6851 127.418 28.7614 127.313 30.1894H135.934C135.96 28.7404 135.571 27.6536 134.768 26.9291L134.773 26.9238Z" fill="black"></path><path d="M159.192 37.0304V42.8423H156.147C153.564 42.8423 151.553 42.2017 150.114 40.926C148.676 39.6449 147.962 37.5344 147.962 34.5786V26.4724H144.996V20.776H147.962V15.3579H154.724V20.776H159.155V26.4724H154.724V34.6993C154.724 35.5709 154.903 36.1746 155.26 36.5159C155.617 36.8571 156.215 37.0304 157.06 37.0304H159.197H159.192Z" fill="black"></path><path d="M183.474 14.8855V20.2616H175.882V42.8424H169.078V20.2616H161.565V14.8855H183.474Z" fill="#0E89FF"></path><path d="M196.741 21.7263C198.069 20.9336 199.513 20.5398 201.072 20.5398V27.7745H199.135C197.339 27.7745 195.953 28.1577 194.961 28.919C193.974 29.6855 193.48 30.977 193.48 32.7936V42.837H186.718V20.7708H193.48V24.9236C194.326 23.5796 195.412 22.5138 196.741 21.7211V21.7263Z" fill="#0E89FF"></path><path d="M217.043 21.6475C218.256 22.414 219.154 23.4535 219.731 24.7713V20.7759H226.452V42.8422H219.731V38.8468C219.149 40.1646 218.256 41.2094 217.043 41.9706C215.831 42.7372 214.382 43.1152 212.691 43.1152C210.875 43.1152 209.242 42.6584 207.808 41.7501C206.37 40.8419 205.236 39.5293 204.406 37.8178C203.577 36.1063 203.162 34.1007 203.162 31.8064C203.162 29.5121 203.577 27.4751 204.406 25.774C205.236 24.073 206.37 22.771 207.808 21.8575C209.247 20.9492 210.875 20.4924 212.691 20.4924C214.376 20.4924 215.825 20.8757 217.043 21.637V21.6475ZM211.368 27.8583C210.486 28.8086 210.045 30.1264 210.045 31.8117C210.045 33.497 210.486 34.8147 211.368 35.765C212.25 36.7153 213.416 37.1878 214.87 37.1878C216.324 37.1878 217.458 36.6995 218.372 35.723C219.28 34.7465 219.737 33.4445 219.737 31.8064C219.737 30.1684 219.28 28.8349 218.372 27.8741C217.463 26.9133 216.293 26.4303 214.87 26.4303C213.447 26.4303 212.255 26.9028 211.368 27.8531V27.8583Z" fill="#0E89FF"></path><path d="M248.638 22.8497C250.565 24.4195 251.778 26.5721 252.276 29.3126H245.12C244.91 28.3624 244.475 27.6273 243.813 27.0971C243.152 26.5721 242.322 26.3043 241.319 26.3043C240.133 26.3043 239.156 26.7716 238.395 27.7061C237.629 28.6406 237.251 30.0056 237.251 31.8012C237.251 33.5967 237.634 34.9565 238.395 35.8963C239.162 36.8308 240.133 37.298 241.319 37.298C242.322 37.298 243.152 37.0355 243.813 36.5053C244.469 35.9803 244.905 35.24 245.12 34.2897H252.276C251.778 37.0303 250.565 39.1881 248.638 40.7526C246.711 42.3224 244.328 43.1047 241.482 43.1047C239.319 43.1047 237.403 42.6479 235.728 41.7396C234.053 40.8314 232.741 39.5188 231.79 37.8073C230.84 36.0958 230.368 34.0902 230.368 31.7959C230.368 29.5016 230.835 27.4646 231.769 25.7635C232.704 24.0625 234.017 22.7605 235.702 21.847C237.387 20.9387 239.314 20.4819 241.477 20.4819C244.322 20.4819 246.711 21.2642 248.633 22.834L248.638 22.8497Z" fill="#0E89FF"></path><path d="M269.56 42.8423L262.955 33.4708V42.8423H256.193V13.5781H262.955V29.633L269.56 20.776H277.509L268.61 31.8065L277.703 42.837H269.555L269.56 42.8423Z" fill="#0E89FF"></path><path d="M130.971 56.86V59.4483H129.895V52.7754H132.163C132.93 52.7754 133.512 52.9591 133.896 53.3214C134.284 53.6889 134.478 54.1877 134.478 54.8229C134.478 55.4582 134.279 55.9517 133.885 56.3087C133.486 56.671 132.914 56.8547 132.163 56.8547H130.971V56.86ZM133.381 54.8282C133.381 54.4502 133.276 54.1614 133.066 53.9619C132.856 53.7624 132.515 53.6627 132.048 53.6627H130.971V55.978H132.048C132.935 55.978 133.381 55.5947 133.381 54.8229V54.8282Z" fill="black"></path><path d="M139.261 54.4975C139.665 54.7128 139.98 55.0225 140.206 55.4215C140.432 55.8258 140.547 56.2983 140.547 56.8391C140.547 57.3798 140.432 57.8628 140.206 58.2671C139.98 58.6713 139.665 58.9811 139.261 59.1911C138.857 59.4064 138.405 59.5114 137.901 59.5114C137.397 59.5114 136.946 59.4064 136.547 59.1911C136.148 58.9759 135.833 58.6661 135.602 58.2618C135.371 57.8576 135.255 57.3798 135.255 56.8391C135.255 56.2983 135.371 55.8258 135.602 55.4215C135.833 55.0173 136.148 54.7075 136.547 54.4975C136.946 54.2822 137.397 54.1772 137.901 54.1772C138.405 54.1772 138.857 54.2822 139.261 54.4975ZM137.135 55.3008C136.904 55.4268 136.715 55.621 136.573 55.8835C136.431 56.146 136.358 56.4663 136.358 56.8443C136.358 57.2223 136.426 57.5478 136.573 57.8103C136.715 58.0676 136.904 58.2618 137.135 58.3878C137.366 58.5138 137.623 58.5768 137.901 58.5768C138.18 58.5768 138.432 58.5138 138.668 58.3878C138.899 58.2618 139.088 58.0676 139.23 57.8103C139.371 57.5531 139.445 57.2328 139.445 56.8443C139.445 56.4558 139.377 56.146 139.23 55.8835C139.088 55.621 138.899 55.4268 138.668 55.3008C138.437 55.1748 138.18 55.1118 137.901 55.1118C137.623 55.1118 137.371 55.1748 137.135 55.3008Z" fill="black"></path><path d="M148.973 54.2402L147.53 59.4483H146.338L145.052 55.4215L143.75 59.4483H142.568L141.125 54.2402H142.211L143.204 58.4561L144.506 54.2402H145.64L146.963 58.4561L147.955 54.2402H148.973Z" fill="black"></path><path d="M154.607 57.0543H150.602C150.623 57.5898 150.77 57.9888 151.048 58.2461C151.326 58.5033 151.667 58.6346 152.077 58.6346C152.434 58.6346 152.738 58.5453 152.99 58.3616C153.237 58.1778 153.395 57.9363 153.447 57.6318H154.602C154.534 57.9993 154.387 58.3196 154.166 58.6031C153.946 58.8866 153.657 59.1071 153.305 59.2699C152.954 59.4326 152.56 59.5114 152.124 59.5114C151.62 59.5114 151.174 59.4064 150.785 59.1911C150.397 58.9759 150.092 58.6661 149.872 58.2671C149.651 57.8628 149.541 57.3903 149.541 56.8391C149.541 56.2878 149.651 55.8258 149.872 55.4215C150.092 55.0173 150.397 54.7075 150.785 54.4975C151.174 54.2822 151.62 54.1772 152.124 54.1772C152.628 54.1772 153.08 54.2822 153.463 54.4923C153.846 54.7023 154.135 54.991 154.34 55.3638C154.544 55.7313 154.644 56.146 154.644 56.5975C154.644 56.7761 154.634 56.9283 154.607 57.0596V57.0543ZM153.384 55.705C153.253 55.474 153.08 55.306 152.854 55.1958C152.628 55.0855 152.387 55.033 152.124 55.033C151.704 55.033 151.347 55.1643 151.064 55.4215C150.78 55.6788 150.628 56.062 150.602 56.566H153.557C153.568 56.2248 153.51 55.9413 153.384 55.7103V55.705Z" fill="black"></path><path d="M157.615 54.4555C157.941 54.256 158.319 54.1562 158.75 54.1562V55.327H158.429C157.957 55.327 157.579 55.4425 157.29 55.6735C157.001 55.9045 156.859 56.2825 156.859 56.8128V59.4484H155.783V54.2403H156.859V55.2588C157.038 54.9175 157.29 54.6498 157.615 54.4503V54.4555Z" fill="black"></path><path d="M164.446 57.0543H160.44C160.461 57.5898 160.608 57.9888 160.886 58.2461C161.164 58.5033 161.506 58.6346 161.915 58.6346C162.272 58.6346 162.577 58.5453 162.829 58.3616C163.075 58.1778 163.233 57.9363 163.285 57.6318H164.441C164.372 57.9993 164.225 58.3196 164.005 58.6031C163.784 58.8866 163.495 59.1071 163.144 59.2699C162.792 59.4326 162.398 59.5114 161.962 59.5114C161.458 59.5114 161.012 59.4064 160.624 59.1911C160.235 58.9759 159.931 58.6661 159.71 58.2671C159.49 57.8628 159.379 57.3903 159.379 56.8391C159.379 56.2878 159.49 55.8258 159.71 55.4215C159.931 55.0173 160.235 54.7075 160.624 54.4975C161.012 54.2822 161.458 54.1772 161.962 54.1772C162.466 54.1772 162.918 54.2822 163.301 54.4923C163.684 54.7023 163.973 54.991 164.178 55.3638C164.383 55.7313 164.483 56.146 164.483 56.5975C164.483 56.7761 164.472 56.9283 164.446 57.0596V57.0543ZM163.222 55.705C163.091 55.474 162.918 55.306 162.692 55.1958C162.466 55.0855 162.225 55.033 161.962 55.033C161.542 55.033 161.185 55.1643 160.902 55.4215C160.618 55.6788 160.466 56.062 160.44 56.566H163.396C163.406 56.2248 163.348 55.9413 163.222 55.7103V55.705Z" fill="black"></path><path d="M168.914 54.5237C169.25 54.7548 169.481 55.0645 169.612 55.4478V52.45H170.699V59.4431H169.612V58.2356C169.481 58.6188 169.245 58.9286 168.914 59.1596C168.578 59.3906 168.179 59.5114 167.707 59.5114C167.234 59.5114 166.851 59.4064 166.494 59.1911C166.137 58.9758 165.859 58.6661 165.659 58.2671C165.46 57.8628 165.354 57.3903 165.354 56.839C165.354 56.2878 165.454 55.8258 165.659 55.4215C165.859 55.0173 166.137 54.7075 166.494 54.4975C166.851 54.2822 167.255 54.1772 167.707 54.1772C168.158 54.1772 168.583 54.2927 168.914 54.529V54.5237ZM166.888 55.579C166.599 55.8835 166.457 56.3035 166.457 56.839C166.457 57.3746 166.599 57.7946 166.888 58.0991C167.176 58.4036 167.554 58.5558 168.037 58.5558C168.342 58.5558 168.61 58.4823 168.851 58.3406C169.093 58.1988 169.282 57.9993 169.418 57.7421C169.555 57.4848 169.628 57.1803 169.628 56.8338C169.628 56.4873 169.56 56.1933 169.418 55.9308C169.282 55.6683 169.093 55.4688 168.851 55.327C168.61 55.1853 168.342 55.1118 168.037 55.1118C167.56 55.1118 167.176 55.264 166.888 55.5685V55.579Z" fill="black"></path><path d="M178.595 54.4975C178.952 54.7128 179.23 55.0225 179.43 55.4215C179.629 55.8258 179.735 56.2983 179.735 56.839C179.735 57.3798 179.635 57.8628 179.43 58.2671C179.23 58.6713 178.947 58.9811 178.595 59.1911C178.238 59.4064 177.834 59.5114 177.382 59.5114C176.931 59.5114 176.506 59.3959 176.175 59.1596C175.839 58.9286 175.608 58.6188 175.477 58.2356V59.4431H174.4V52.45H175.477V55.4478C175.608 55.0645 175.844 54.7548 176.175 54.5237C176.511 54.2927 176.91 54.172 177.382 54.172C177.855 54.172 178.238 54.277 178.595 54.4922V54.4975ZM176.238 55.3323C175.996 55.474 175.807 55.6735 175.671 55.936C175.534 56.1985 175.461 56.4978 175.461 56.839C175.461 57.1803 175.529 57.4901 175.671 57.7473C175.807 58.0046 175.996 58.2041 176.238 58.3458C176.479 58.4876 176.747 58.5611 177.052 58.5611C177.529 58.5611 177.913 58.4088 178.207 58.1043C178.501 57.7998 178.642 57.3798 178.642 56.8443C178.642 56.3088 178.495 55.894 178.207 55.5895C177.918 55.285 177.535 55.1275 177.052 55.1275C176.747 55.1275 176.479 55.201 176.238 55.3428V55.3323Z" fill="black"></path><path d="M181.483 54.2402L183.043 58.0676L184.486 54.2402H185.689L182.544 61.9212H181.342L182.465 59.3223L180.271 54.2402H181.478H181.483Z" fill="black"></path><path d="M189.877 58.6083H192.182V59.4483H188.801V52.7754H189.877V58.6083Z" fill="black"></path><path d="M197.575 56.5817C197.821 56.8862 197.947 57.238 197.947 57.6422C197.947 58.1988 197.764 58.6345 197.391 58.96C197.018 59.2855 196.483 59.4483 195.774 59.4483H193.117V52.7754H195.726C196.393 52.7754 196.908 52.9276 197.26 53.2269C197.611 53.5262 197.795 53.9357 197.795 54.4607C197.795 54.8807 197.685 55.2272 197.464 55.4844C197.244 55.747 196.955 55.9202 196.593 56.0095C196.997 56.0935 197.323 56.2825 197.569 56.587L197.575 56.5817ZM194.199 55.6472H195.532C195.91 55.6472 196.199 55.558 196.399 55.3847C196.598 55.2114 196.698 54.9647 196.698 54.6497C196.698 54.3347 196.598 54.0984 196.399 53.9199C196.199 53.7414 195.9 53.6574 195.495 53.6574H194.199V55.6525V55.6472ZM196.509 58.2775C196.735 58.0938 196.845 57.8312 196.845 57.4952C196.845 57.1592 196.729 56.902 196.504 56.713C196.278 56.524 195.958 56.4295 195.548 56.4295H194.199V58.5558H195.558C195.968 58.5558 196.283 58.4613 196.509 58.2775Z" fill="black"></path><path d="M205.649 52.7754V53.6469H203.785V59.4483H202.699V53.6469H200.845V52.7754H205.644H205.649Z" fill="black"></path><path d="M211.345 57.0543H207.339C207.36 57.5898 207.507 57.9888 207.786 58.2461C208.064 58.5033 208.405 58.6346 208.815 58.6346C209.172 58.6346 209.476 58.5453 209.728 58.3616C209.975 58.1778 210.132 57.9363 210.185 57.6318H211.34C211.272 57.9993 211.125 58.3196 210.904 58.6031C210.684 58.8866 210.395 59.1071 210.043 59.2699C209.691 59.4326 209.298 59.5114 208.862 59.5114C208.358 59.5114 207.912 59.4064 207.523 59.1911C207.135 58.9759 206.83 58.6661 206.61 58.2671C206.389 57.8628 206.279 57.3903 206.279 56.8391C206.279 56.2878 206.389 55.8258 206.61 55.4215C206.83 55.0173 207.135 54.7075 207.523 54.4975C207.912 54.2822 208.358 54.1772 208.862 54.1772C209.366 54.1772 209.817 54.2822 210.201 54.4923C210.584 54.7023 210.873 54.991 211.077 55.3638C211.282 55.7313 211.382 56.146 211.382 56.5975C211.382 56.7761 211.371 56.9283 211.345 57.0596V57.0543ZM210.122 55.705C209.991 55.474 209.817 55.306 209.592 55.1958C209.366 55.0855 209.124 55.033 208.862 55.033C208.442 55.033 208.085 55.1643 207.801 55.4215C207.518 55.6788 207.366 56.062 207.339 56.566H210.295C210.306 56.2248 210.248 55.9413 210.122 55.7103V55.705Z" fill="black"></path><path d="M216.506 54.7076C216.947 55.0646 217.22 55.5476 217.33 56.1567H216.186C216.123 55.8312 215.97 55.5739 215.729 55.3849C215.487 55.2011 215.183 55.1066 214.815 55.1066C214.401 55.1066 214.054 55.2536 213.776 55.5476C213.498 55.8417 213.361 56.2722 213.361 56.8392C213.361 57.4062 213.498 57.8367 213.776 58.136C214.054 58.43 214.401 58.5822 214.815 58.5822C215.183 58.5822 215.482 58.4877 215.729 58.2987C215.97 58.1097 216.123 57.8524 216.186 57.5217H217.33C217.225 58.1307 216.947 58.619 216.506 58.976C216.065 59.333 215.508 59.5167 214.831 59.5167C214.327 59.5167 213.881 59.4117 213.492 59.1965C213.104 58.9812 212.799 58.6715 212.579 58.2725C212.358 57.8682 212.248 57.3957 212.248 56.8444C212.248 56.2932 212.358 55.8312 212.579 55.4269C212.799 55.0226 213.104 54.7129 213.492 54.5029C213.881 54.2876 214.327 54.1826 214.831 54.1826C215.503 54.1826 216.065 54.3611 216.506 54.7181V54.7076Z" fill="black"></path><path d="M222.827 54.739C223.195 55.1275 223.373 55.6893 223.373 56.4138V59.4484H222.297V56.5293C222.297 56.062 222.176 55.6998 221.94 55.4478C221.698 55.1905 221.373 55.0645 220.958 55.0645C220.543 55.0645 220.186 55.201 219.929 55.474C219.672 55.747 219.541 56.1513 219.541 56.6763V59.4431H218.464V52.45H219.541V55.3795C219.677 54.991 219.913 54.6865 220.239 54.4712C220.564 54.256 220.942 54.151 221.373 54.151C221.977 54.151 222.465 54.3452 222.827 54.739Z" fill="black"></path><path d="M229.096 54.7389C229.464 55.1274 229.642 55.6892 229.642 56.4137V59.4482H228.566V56.5292C228.566 56.0619 228.445 55.6997 228.209 55.4477C227.967 55.1904 227.642 55.0644 227.227 55.0644C226.812 55.0644 226.455 55.2009 226.198 55.4739C225.941 55.7469 225.81 56.1512 225.81 56.6762V59.443H224.733V54.2349H225.81V55.3794C225.946 54.9909 226.182 54.6864 226.508 54.4711C226.833 54.2559 227.211 54.1509 227.642 54.1509C228.246 54.1509 228.734 54.3451 229.096 54.7389Z" fill="black"></path><path d="M234.734 54.4975C235.139 54.7128 235.454 55.0225 235.679 55.4215C235.905 55.8258 236.021 56.2983 236.021 56.8391C236.021 57.3798 235.905 57.8628 235.679 58.2671C235.454 58.6713 235.139 58.9811 234.734 59.1911C234.33 59.4064 233.879 59.5114 233.375 59.5114C232.871 59.5114 232.419 59.4064 232.02 59.1911C231.621 58.9759 231.306 58.6661 231.075 58.2618C230.844 57.8576 230.729 57.3798 230.729 56.8391C230.729 56.2983 230.844 55.8258 231.075 55.4215C231.306 55.0173 231.621 54.7075 232.02 54.4975C232.419 54.2822 232.871 54.1772 233.375 54.1772C233.879 54.1772 234.33 54.2822 234.734 54.4975ZM232.608 55.3008C232.377 55.4268 232.188 55.621 232.046 55.8835C231.905 56.146 231.831 56.4663 231.831 56.8443C231.831 57.2223 231.899 57.5478 232.046 57.8103C232.188 58.0676 232.377 58.2618 232.608 58.3878C232.839 58.5138 233.096 58.5768 233.375 58.5768C233.653 58.5768 233.905 58.5138 234.141 58.3878C234.372 58.2618 234.561 58.0676 234.703 57.8103C234.845 57.5531 234.918 57.2328 234.918 56.8443C234.918 56.4558 234.85 56.146 234.703 55.8835C234.561 55.621 234.372 55.4268 234.141 55.3008C233.91 55.1748 233.653 55.1118 233.375 55.1118C233.096 55.1118 232.844 55.1748 232.608 55.3008Z" fill="black"></path><path d="M238.231 52.4551V59.4482H237.155V52.4551H238.231Z" fill="black"></path><path d="M243.371 54.4975C243.775 54.7128 244.09 55.0225 244.316 55.4215C244.541 55.8258 244.657 56.2983 244.657 56.8391C244.657 57.3798 244.541 57.8628 244.316 58.2671C244.09 58.6713 243.775 58.9811 243.371 59.1911C242.966 59.4064 242.515 59.5114 242.011 59.5114C241.507 59.5114 241.055 59.4064 240.656 59.1911C240.257 58.9759 239.942 58.6661 239.711 58.2618C239.48 57.8576 239.365 57.3798 239.365 56.8391C239.365 56.2983 239.48 55.8258 239.711 55.4215C239.942 55.0173 240.257 54.7075 240.656 54.4975C241.055 54.2822 241.507 54.1772 242.011 54.1772C242.515 54.1772 242.966 54.2822 243.371 54.4975ZM241.244 55.3008C241.013 55.4268 240.824 55.621 240.683 55.8835C240.541 56.146 240.467 56.4663 240.467 56.8443C240.467 57.2223 240.536 57.5478 240.683 57.8103C240.824 58.0676 241.013 58.2618 241.244 58.3878C241.475 58.5138 241.733 58.5768 242.011 58.5768C242.289 58.5768 242.541 58.5138 242.777 58.3878C243.008 58.2618 243.197 58.0676 243.339 57.8103C243.481 57.5531 243.554 57.2328 243.554 56.8443C243.554 56.4558 243.486 56.146 243.339 55.8835C243.197 55.621 243.008 55.4268 242.777 55.3008C242.546 55.1748 242.289 55.1118 242.011 55.1118C241.733 55.1118 241.481 55.1748 241.244 55.3008Z" fill="black"></path><path d="M249.088 54.5238C249.424 54.7548 249.661 55.0645 249.797 55.4478V54.2402H250.873V59.5061C250.873 59.9891 250.774 60.4196 250.574 60.7976C250.375 61.1704 250.091 61.4644 249.718 61.6797C249.346 61.8949 248.905 61.9999 248.395 61.9999C247.665 61.9999 247.072 61.8267 246.621 61.4802C246.169 61.1336 245.891 60.6664 245.775 60.0731H246.841C246.93 60.3829 247.098 60.6244 247.35 60.7976C247.602 60.9709 247.923 61.0549 248.317 61.0549C248.747 61.0549 249.099 60.9236 249.377 60.6559C249.655 60.3881 249.792 60.0049 249.792 59.5009V58.2356C249.655 58.6188 249.419 58.9286 249.083 59.1596C248.747 59.3906 248.348 59.5114 247.875 59.5114C247.403 59.5114 247.02 59.4064 246.663 59.1911C246.306 58.9759 246.027 58.6661 245.828 58.2671C245.628 57.8628 245.523 57.3903 245.523 56.8391C245.523 56.2878 245.623 55.8258 245.828 55.4215C246.027 55.0173 246.306 54.7075 246.663 54.4975C247.02 54.2822 247.424 54.1772 247.875 54.1772C248.327 54.1772 248.752 54.2927 249.083 54.529L249.088 54.5238ZM247.062 55.579C246.773 55.8835 246.631 56.3035 246.631 56.8391C246.631 57.3746 246.773 57.7946 247.062 58.0991C247.35 58.4036 247.728 58.5558 248.211 58.5558C248.516 58.5558 248.784 58.4823 249.025 58.3406C249.267 58.1988 249.456 57.9993 249.592 57.7421C249.729 57.4848 249.802 57.1803 249.802 56.8338C249.802 56.4873 249.734 56.1933 249.592 55.9308C249.456 55.6683 249.267 55.4688 249.025 55.327C248.784 55.1853 248.516 55.1118 248.211 55.1118C247.734 55.1118 247.35 55.264 247.062 55.5685V55.579Z" fill="black"></path><path d="M252.879 54.2402L254.439 58.0676L255.882 54.2402H257.085L253.94 61.9212H252.738L253.861 59.3223L251.667 54.2402H252.874H252.879Z" fill="black"></path><path d="M258.722 59.6059C258.722 59.9577 258.633 60.2464 258.449 60.4722C258.266 60.6979 257.987 60.8082 257.62 60.8082V60.3724C257.777 60.3724 257.893 60.3304 257.972 60.2517C258.045 60.1677 258.087 60.0312 258.087 59.8369V59.7529H257.541V58.7134H258.56C258.675 59.0021 258.728 59.3014 258.728 59.6111L258.722 59.6059Z" fill="black"></path><path d="M263.19 52.7754V59.4483H262.114V52.7754H263.19Z" fill="black"></path><path d="M268.955 54.7389C269.323 55.1274 269.501 55.6892 269.501 56.4137V59.4482H268.425V56.5292C268.425 56.0619 268.304 55.6997 268.068 55.4477C267.826 55.1904 267.501 55.0644 267.086 55.0644C266.671 55.0644 266.314 55.2009 266.057 55.4739C265.8 55.7469 265.669 56.1512 265.669 56.6762V59.443H264.592V54.2349H265.669V55.3794C265.805 54.9909 266.041 54.6864 266.367 54.4711C266.692 54.2559 267.07 54.1509 267.501 54.1509C268.105 54.1509 268.593 54.3451 268.955 54.7389Z" fill="black"></path><path d="M274.84 54.7076C275.281 55.0646 275.554 55.5476 275.665 56.1567H274.52C274.457 55.8312 274.305 55.5739 274.063 55.3849C273.822 55.2011 273.517 55.1066 273.15 55.1066C272.735 55.1066 272.389 55.2536 272.11 55.5476C271.832 55.8417 271.696 56.2722 271.696 56.8392C271.696 57.4062 271.832 57.8367 272.11 58.136C272.389 58.43 272.735 58.5822 273.15 58.5822C273.517 58.5822 273.817 58.4877 274.063 58.2987C274.305 58.1097 274.457 57.8524 274.52 57.5217H275.665C275.56 58.1307 275.281 58.619 274.84 58.976C274.399 59.333 273.843 59.5167 273.166 59.5167C272.662 59.5167 272.215 59.4117 271.827 59.1965C271.438 58.9812 271.134 58.6715 270.913 58.2725C270.693 57.8682 270.583 57.3957 270.583 56.8444C270.583 56.2932 270.693 55.8312 270.913 55.4269C271.134 55.0226 271.438 54.7129 271.827 54.5029C272.215 54.2876 272.662 54.1826 273.166 54.1826C273.838 54.1826 274.399 54.3611 274.84 54.7181V54.7076Z" fill="black"></path><path d="M277.649 58.2566V59.4484H276.431V58.2566H277.649Z" fill="black"></path></svg>