<svg width="29" height="24" viewBox="0 0 29 24" fill="none" xmlns="http://www.w3.org/2000/svg">
<path d="M0.977051 22.2563V20.4973C0.977051 19.8411 1.14883 19.2378 1.49238 18.6873C1.83594 18.1369 2.31538 17.7078 2.93072 17.4C4.0385 16.8393 5.27783 16.3761 6.64872 16.0103C8.01961 15.6445 9.46238 15.4616 10.977 15.4616C12.4915 15.4616 13.9342 15.6445 15.305 16.0103C16.6759 16.3761 17.9153 16.8393 19.0231 17.4C19.6384 17.7078 20.1178 18.1369 20.4614 18.6873C20.8052 19.2378 20.977 19.8411 20.977 20.4973V22.2563C20.977 22.5999 20.8621 22.8866 20.632 23.1166C20.4021 23.3464 20.1153 23.4613 19.7717 23.4613H2.18205C1.8385 23.4613 1.55183 23.3464 1.32205 23.1166C1.09205 22.8866 0.977051 22.5999 0.977051 22.2563ZM2.97705 21.4616H18.977V20.4973C18.977 20.1931 18.8945 19.9324 18.7294 19.7153C18.5645 19.4982 18.3564 19.3213 18.1051 19.1846C17.2879 18.7675 16.2516 18.3761 14.996 18.0103C13.7405 17.6445 12.4008 17.4616 10.977 17.4616C9.55305 17.4616 8.21327 17.6445 6.95772 18.0103C5.70216 18.3761 4.66583 18.7675 3.84872 19.1846C3.59738 19.3213 3.38927 19.4982 3.22438 19.7153C3.05949 19.9324 2.97705 20.1931 2.97705 20.4973V21.4616ZM10.977 13.3076C9.67283 13.3076 8.56894 12.856 7.66538 11.9526C6.76205 11.0491 6.31038 9.91953 6.31038 8.56398H6.00272C5.82827 8.56398 5.68638 8.50931 5.57705 8.39998C5.46772 8.29064 5.41305 8.14875 5.41305 7.97431C5.41305 7.80009 5.46772 7.6582 5.57705 7.54864C5.68638 7.43931 5.82827 7.38464 6.00272 7.38464H6.31038C6.3275 6.54709 6.52061 5.79031 6.88972 5.11431C7.25905 4.43809 7.78383 3.85809 8.46405 3.37431V4.64098C8.46405 4.81542 8.51883 4.95731 8.62838 5.06664C8.73772 5.1762 8.87961 5.23098 9.05405 5.23098C9.22827 5.23098 9.37005 5.1762 9.47938 5.06664C9.58894 4.95731 9.64372 4.81542 9.64372 4.64098V2.86664C9.83505 2.79998 10.0441 2.74576 10.2707 2.70398C10.4972 2.66198 10.7326 2.64098 10.977 2.64098C11.2215 2.64098 11.4569 2.66198 11.6834 2.70398C11.9098 2.74576 12.1188 2.79998 12.3104 2.86664V4.64098C12.3104 4.81542 12.3651 4.95731 12.4744 5.06664C12.5837 5.1762 12.7256 5.23098 12.9001 5.23098C13.0745 5.23098 13.2164 5.1762 13.3257 5.06664C13.4351 4.95731 13.4897 4.81542 13.4897 4.64098V3.37431C14.1786 3.85809 14.7055 4.43809 15.0704 5.11431C15.4355 5.79031 15.6266 6.54709 15.6437 7.38464H15.9514C16.1256 7.38464 16.2675 7.43931 16.377 7.54864C16.4864 7.6582 16.541 7.80009 16.541 7.97431C16.541 8.14875 16.4864 8.29064 16.377 8.39998C16.2675 8.50931 16.1256 8.56398 15.9514 8.56398H15.6437C15.6437 9.91953 15.1919 11.0491 14.2884 11.9526C13.385 12.856 12.2813 13.3076 10.977 13.3076ZM10.977 11.3076C11.7275 11.3076 12.3595 11.0509 12.8731 10.5373C13.3868 10.0235 13.6437 9.39142 13.6437 8.64098H8.31038C8.31038 9.39142 8.56716 10.0235 9.08072 10.5373C9.59449 11.0509 10.2266 11.3076 10.977 11.3076ZM20.9284 15.4026L20.854 14.923C20.7036 14.8785 20.5523 14.8179 20.4 14.741C20.2478 14.6641 20.1119 14.5658 19.9924 14.446L19.5537 14.618C19.4153 14.6624 19.2824 14.6645 19.1551 14.6243C19.0277 14.5841 18.9239 14.4948 18.8437 14.3563L18.7487 14.1873C18.6685 14.0624 18.6428 13.9308 18.6717 13.7923C18.7008 13.6539 18.7709 13.5376 18.8821 13.4436L19.254 13.1436C19.2369 13.0599 19.2284 12.9803 19.2284 12.905V12.4346C19.2284 12.3638 19.2369 12.2821 19.254 12.1896L18.8821 11.8896C18.7709 11.7956 18.7008 11.6794 18.6717 11.541C18.6428 11.4025 18.6685 11.2709 18.7487 11.146L18.8437 10.977C18.9239 10.8385 19.0277 10.7492 19.1551 10.709C19.2824 10.6688 19.4153 10.6709 19.5537 10.7153L19.9924 10.8873C20.0984 10.7813 20.2308 10.6864 20.3897 10.6026C20.5488 10.5189 20.7036 10.4548 20.854 10.4103L20.9284 9.93064C20.9642 9.7922 21.0334 9.67509 21.1361 9.57931C21.2385 9.48376 21.3589 9.43598 21.4974 9.43598H21.687C21.8257 9.43598 21.9463 9.48376 22.0487 9.57931C22.1514 9.67509 22.2206 9.7922 22.2564 9.93064L22.3307 10.4103C22.4812 10.4548 22.6359 10.5189 22.795 10.6026C22.9539 10.6864 23.0864 10.7813 23.1924 10.8873L23.6307 10.7153C23.7692 10.6709 23.9021 10.6688 24.0294 10.709C24.1567 10.7492 24.2606 10.8385 24.341 10.977L24.4361 11.146C24.5163 11.2709 24.5418 11.4025 24.5127 11.541C24.4838 11.6794 24.4138 11.7956 24.3027 11.8896L23.9307 12.1896C23.9478 12.2821 23.9564 12.3638 23.9564 12.4346V12.905C23.9564 12.9803 23.9478 13.0599 23.9307 13.1436L24.3027 13.4436C24.4138 13.5376 24.4838 13.6539 24.5127 13.7923C24.5418 13.9308 24.5163 14.0624 24.4361 14.1873L24.341 14.3563C24.2606 14.4948 24.1567 14.5841 24.0294 14.6243C23.9021 14.6645 23.7692 14.6624 23.6307 14.618L23.1924 14.446C23.0726 14.5658 22.9367 14.6641 22.7847 14.741C22.6325 14.8179 22.4812 14.8785 22.3307 14.923L22.2564 15.4026C22.2206 15.5411 22.1514 15.6582 22.0487 15.754C21.9463 15.8495 21.8257 15.8973 21.687 15.8973H21.4974C21.3589 15.8973 21.2385 15.8495 21.1361 15.754C21.0334 15.6582 20.9642 15.5411 20.9284 15.4026ZM21.5924 13.7693C21.8933 13.7693 22.1523 13.6608 22.3694 13.4436C22.5865 13.2265 22.695 12.9675 22.695 12.6666C22.695 12.3658 22.5865 12.1068 22.3694 11.8896C22.1523 11.6725 21.8933 11.564 21.5924 11.564C21.2915 11.564 21.0325 11.6725 20.8154 11.8896C20.5983 12.1068 20.4897 12.3658 20.4897 12.6666C20.4897 12.9675 20.5983 13.2265 20.8154 13.4436C21.0325 13.6608 21.2915 13.7693 21.5924 13.7693ZM24.0514 8.33064L23.9564 7.72831C23.7308 7.67009 23.5069 7.5782 23.2847 7.45264C23.0625 7.32687 22.8762 7.17598 22.7257 6.99998L22.1027 7.23331C21.9369 7.29131 21.7733 7.28998 21.6117 7.22931C21.4502 7.16864 21.3224 7.06231 21.2284 6.91031L21.0924 6.67931C20.9984 6.52731 20.9659 6.36498 20.995 6.19231C21.0239 6.01964 21.1145 5.87264 21.2667 5.75131L21.7821 5.32831C21.7376 5.20853 21.7112 5.0982 21.7027 4.99731C21.694 4.89642 21.6897 4.7862 21.6897 4.66664C21.6897 4.54709 21.694 4.43687 21.7027 4.33598C21.7112 4.23509 21.7376 4.12476 21.7821 4.00498L21.2667 3.58198C21.1145 3.46064 21.0239 3.31364 20.995 3.14098C20.9659 2.96831 20.9984 2.80598 21.0924 2.65398L21.2284 2.42298C21.3224 2.27098 21.4502 2.16464 21.6117 2.10398C21.7733 2.04331 21.9369 2.04198 22.1027 2.09998L22.7257 2.33331C22.8762 2.15731 23.0625 2.00642 23.2847 1.88064C23.5069 1.75509 23.7308 1.6632 23.9564 1.60498L24.0514 1.00264C24.0872 0.823089 24.1735 0.6752 24.3104 0.558978C24.4471 0.442756 24.6052 0.384644 24.7847 0.384644H25.0154C25.1949 0.384644 25.3531 0.442756 25.4897 0.558978C25.6266 0.6752 25.7129 0.823089 25.7487 1.00264L25.8437 1.60498C26.0693 1.6632 26.2932 1.75509 26.5154 1.88064C26.7376 2.00642 26.9239 2.15731 27.0744 2.33331L27.6974 2.09998C27.8632 2.04198 28.0268 2.04331 28.1884 2.10398C28.3499 2.16464 28.4777 2.27098 28.5717 2.42298L28.7077 2.65398C28.8017 2.80598 28.8342 2.96831 28.805 3.14098C28.7759 3.31364 28.6854 3.46064 28.5334 3.58198L28.018 4.00498C28.0625 4.12476 28.0889 4.23509 28.0974 4.33598C28.106 4.43687 28.1104 4.54709 28.1104 4.66664C28.1104 4.7862 28.106 4.89642 28.0974 4.99731C28.0889 5.0982 28.0625 5.20853 28.018 5.32831L28.5334 5.75131C28.6854 5.87264 28.7759 6.01964 28.805 6.19231C28.8342 6.36498 28.8017 6.52731 28.7077 6.67931L28.5717 6.91031C28.4777 7.06231 28.3499 7.16864 28.1884 7.22931C28.0268 7.28998 27.8632 7.29131 27.6974 7.23331L27.0744 6.99998C26.9239 7.17598 26.7376 7.32687 26.5154 7.45264C26.2932 7.5782 26.0693 7.67009 25.8437 7.72831L25.7487 8.33064C25.7129 8.5102 25.6266 8.65809 25.4897 8.77431C25.3531 8.89053 25.1949 8.94864 25.0154 8.94864H24.7847C24.6052 8.94864 24.4471 8.89053 24.3104 8.77431C24.1735 8.65809 24.0872 8.5102 24.0514 8.33064ZM24.9 6.41031C25.3923 6.41031 25.8059 6.24275 26.141 5.90764C26.4762 5.57253 26.6437 5.15887 26.6437 4.66664C26.6437 4.17442 26.4762 3.76076 26.141 3.42564C25.8059 3.09053 25.3923 2.92298 24.9 2.92298C24.4078 2.92298 23.9942 3.09053 23.659 3.42564C23.3239 3.76076 23.1564 4.17442 23.1564 4.66664C23.1564 5.15887 23.3239 5.57253 23.659 5.90764C23.9942 6.24275 24.4078 6.41031 24.9 6.41031Z" fill="#555555"/>
</svg>
