<svg width="26" height="20" viewBox="0 0 26 20" fill="none" xmlns="http://www.w3.org/2000/svg">
<path d="M19.4743 16.5333L16.6973 19.3103C16.5126 19.4947 16.2827 19.5849 16.0076 19.5806C15.7325 19.5764 15.5026 19.482 15.3179 19.2973C15.1333 19.1126 15.0409 18.8799 15.0409 18.599C15.0409 18.3181 15.1333 18.0867 15.3179 17.905L18.0819 15.141L15.3049 12.364C15.1205 12.1793 15.0304 11.9473 15.0346 11.668C15.0388 11.3884 15.1333 11.1563 15.3179 10.9716C15.5026 10.7872 15.7354 10.695 16.0163 10.695C16.2971 10.695 16.5285 10.7872 16.7103 10.9716L19.4743 13.7486L22.2513 10.9716C22.433 10.7872 22.6644 10.695 22.9453 10.695C23.2261 10.695 23.4589 10.7872 23.6436 10.9716C23.828 11.1563 23.9203 11.3891 23.9203 11.67C23.9203 11.9509 23.828 12.1822 23.6436 12.364L20.8666 15.141L23.6436 17.918C23.828 18.1026 23.9203 18.3325 23.9203 18.6076C23.9203 18.8827 23.828 19.1126 23.6436 19.2973C23.4589 19.482 23.2261 19.5743 22.9453 19.5743C22.6644 19.5743 22.433 19.482 22.2513 19.2973L19.4743 16.5333ZM18.6203 5.63064L23.5846 0.666636C23.7828 0.468414 24.0169 0.370525 24.2869 0.372969C24.5571 0.375636 24.7914 0.480414 24.9896 0.687303C25.1743 0.888636 25.2666 1.12353 25.2666 1.39197C25.2666 1.66064 25.1743 1.89408 24.9896 2.0923L19.4973 7.60497C19.2564 7.84608 18.9751 7.96664 18.6536 7.96664C18.3323 7.96664 18.0511 7.84608 17.8103 7.60497L15.0846 4.8793C14.8999 4.69486 14.8097 4.46286 14.8139 4.1833C14.8184 3.90375 14.9128 3.67175 15.0973 3.4873C15.2819 3.30264 15.5147 3.2103 15.7956 3.2103C16.0765 3.2103 16.3078 3.30264 16.4896 3.4873L18.6203 5.63064ZM1.33325 14.077H10.6666C10.9499 14.077 11.1875 14.1729 11.3793 14.3646C11.5708 14.5564 11.6666 14.794 11.6666 15.0773C11.6666 15.3609 11.5708 15.5983 11.3793 15.7896C11.1875 15.9812 10.9499 16.077 10.6666 16.077H1.33325C1.04992 16.077 0.812474 15.9811 0.620919 15.7893C0.429141 15.5975 0.333252 15.3599 0.333252 15.0763C0.333252 14.793 0.429141 14.5555 0.620919 14.364C0.812474 14.1726 1.04992 14.077 1.33325 14.077ZM1.33325 3.92297H10.6666C10.9499 3.92297 11.1875 4.01886 11.3793 4.21064C11.5708 4.40241 11.6666 4.64008 11.6666 4.92364C11.6666 5.20697 11.5708 5.44441 11.3793 5.63597C11.1875 5.8273 10.9499 5.92297 10.6666 5.92297H1.33325C1.04992 5.92297 0.812474 5.82708 0.620919 5.6353C0.429141 5.44353 0.333252 5.20597 0.333252 4.92264C0.333252 4.63908 0.429141 4.40164 0.620919 4.2103C0.812474 4.01875 1.04992 3.92297 1.33325 3.92297Z" fill="#555555"/>
</svg>
