<svg width="24" height="24" viewBox="0 0 24 24" fill="none" xmlns="http://www.w3.org/2000/svg">
<path d="M15.2231 23.0077L8.00008 20.482L2.29908 22.6877C2.09464 22.7695 1.89697 22.7952 1.70608 22.765C1.51541 22.7348 1.33975 22.6693 1.17908 22.5687C1.01841 22.468 0.892859 22.332 0.802415 22.1607C0.711971 21.9896 0.666748 21.7932 0.666748 21.5717V4.10701C0.666748 3.83701 0.737304 3.59834 0.878415 3.39101C1.0193 3.18345 1.21719 3.03267 1.47208 2.93867L7.21041 0.992342C7.33197 0.947898 7.45853 0.914564 7.59008 0.892342C7.72164 0.87012 7.8583 0.859009 8.00008 0.859009C8.14186 0.859009 8.27852 0.87012 8.41008 0.892342C8.54164 0.914564 8.66819 0.947898 8.78975 0.992342L16.0001 3.51801L21.7011 1.31234C21.9055 1.23056 22.1032 1.20479 22.2941 1.23501C22.4847 1.26523 22.6604 1.33067 22.8211 1.43134C22.9817 1.53201 23.1073 1.66801 23.1977 1.83934C23.2882 2.01045 23.3334 2.20679 23.3334 2.42834V19.9503C23.3334 20.221 23.2565 20.4589 23.1027 20.664C22.9487 20.8691 22.7402 21.0187 22.4771 21.1127L16.7771 23.0203C16.6522 23.0648 16.5257 23.096 16.3977 23.114C16.2697 23.132 16.1369 23.141 15.9991 23.141C15.8613 23.141 15.7287 23.1299 15.6014 23.1077C15.4741 23.0855 15.348 23.0521 15.2231 23.0077ZM15.0001 20.836V5.23601L9.00008 3.13834V18.7383L15.0001 20.836ZM17.0001 20.836L21.3334 19.4V3.60001L17.0001 5.23601V20.836ZM2.66675 20.4L7.00008 18.7383V3.13834L2.66675 4.60001V20.4Z" fill="#555555"/>
</svg>
