<svg width="24" height="24" viewBox="0 0 24 24" fill="none" xmlns="http://www.w3.org/2000/svg">
<path d="M4.57301 14.1288C4.37701 13.9801 4.27993 13.7849 4.28176 13.5433C4.28376 13.3016 4.38285 13.1032 4.57901 12.948C4.71735 12.8468 4.86926 12.7963 5.03476 12.7963C5.2001 12.7963 5.35201 12.8468 5.49051 12.948L11.8078 17.8365C11.8654 17.8813 11.9295 17.9038 12 17.9038C12.0705 17.9038 12.1346 17.8813 12.1923 17.8365L18.5095 12.948C18.648 12.8468 18.7999 12.7963 18.9653 12.7963C19.1308 12.7963 19.2827 12.8468 19.421 12.948C19.6172 13.1032 19.7163 13.3016 19.7183 13.5433C19.7201 13.7849 19.623 13.9801 19.427 14.1288L13.1095 19.0325C12.775 19.2903 12.4052 19.4193 12 19.4193C11.5948 19.4193 11.225 19.2903 10.8905 19.0325L4.57301 14.1288ZM10.8905 14.598L5.64051 10.5173C5.17501 10.1558 4.94226 9.6821 4.94226 9.09626C4.94226 8.51026 5.17501 8.03651 5.64051 7.67501L10.8905 3.59426C11.225 3.3366 11.5948 3.20776 12 3.20776C12.4052 3.20776 12.775 3.3366 13.1095 3.59426L18.3595 7.67501C18.825 8.03651 19.0578 8.51026 19.0578 9.09626C19.0578 9.6821 18.825 10.1558 18.3595 10.5173L13.1095 14.598C12.775 14.8557 12.4052 14.9845 12 14.9845C11.5948 14.9845 11.225 14.8557 10.8905 14.598ZM12.1923 13.402L17.4328 9.33651C17.5161 9.27251 17.5578 9.19243 17.5578 9.09626C17.5578 9.0001 17.5161 8.91993 17.4328 8.85576L12.1923 4.79051C12.1346 4.74551 12.0705 4.72301 12 4.72301C11.9295 4.72301 11.8654 4.74551 11.8078 4.79051L6.56726 8.85576C6.48393 8.91993 6.44226 9.0001 6.44226 9.09626C6.44226 9.19243 6.48393 9.27251 6.56726 9.33651L11.8078 13.402C11.8654 13.4468 11.9295 13.4693 12 13.4693C12.0705 13.4693 12.1346 13.4468 12.1923 13.402Z" fill="#304674"/>
</svg>
