<svg width="32" height="32" viewBox="0 0 32 32" fill="none" xmlns="http://www.w3.org/2000/svg">
<path d="M2.39771 22.7793C2.39771 22.0922 2.57504 21.479 2.92971 20.9397C3.28437 20.4003 3.75804 19.9808 4.35071 19.681C5.61782 19.0612 6.89193 18.5833 8.17304 18.2473C9.45437 17.9116 10.8625 17.7437 12.3974 17.7437C13.9325 17.7437 15.3406 17.9116 16.6217 18.2473C17.903 18.5833 19.1773 19.0612 20.4444 19.681C21.037 19.9808 21.5107 20.4003 21.8654 20.9397C22.22 21.479 22.3974 22.0922 22.3974 22.7793V23.718C22.3974 24.2547 22.2004 24.7265 21.8064 25.1333C21.4124 25.5402 20.9342 25.7437 20.3717 25.7437H4.42304C3.86082 25.7437 3.38271 25.5467 2.98871 25.1527C2.59471 24.7585 2.39771 24.2802 2.39771 23.718V22.7793ZM27.577 25.7437H24.5487C24.7163 25.4377 24.844 25.112 24.932 24.7667C25.02 24.4213 25.064 24.0718 25.064 23.718V22.6153C25.064 21.7402 24.8498 20.9061 24.4214 20.113C23.9927 19.3201 23.3847 18.6398 22.5974 18.072C23.4914 18.2053 24.3402 18.4117 25.1437 18.691C25.947 18.9706 26.7137 19.3009 27.4437 19.682C28.1326 20.0496 28.6646 20.4828 29.0397 20.9817C29.4148 21.4803 29.6024 22.0249 29.6024 22.6153V23.718C29.6024 24.2802 29.4054 24.7585 29.0114 25.1527C28.6174 25.5467 28.1393 25.7437 27.577 25.7437ZM12.3974 15.5897C11.114 15.5897 10.0155 15.1328 9.10171 14.219C8.18793 13.305 7.73104 12.2063 7.73104 10.923C7.73104 9.63968 8.18793 8.54113 9.10171 7.62735C10.0155 6.71335 11.114 6.25635 12.3974 6.25635C13.6807 6.25635 14.7794 6.71335 15.6934 7.62735C16.6072 8.54113 17.064 9.63968 17.064 10.923C17.064 12.2063 16.6072 13.305 15.6934 14.219C14.7794 15.1328 13.6807 15.5897 12.3974 15.5897ZM23.91 10.923C23.91 12.2063 23.4531 13.305 22.5394 14.219C21.6256 15.1328 20.527 15.5897 19.2437 15.5897C19.0933 15.5897 18.9018 15.5726 18.6694 15.5383C18.4367 15.5041 18.2453 15.4666 18.095 15.4257C18.6208 14.7935 19.0249 14.0921 19.3074 13.3217C19.5896 12.5512 19.7307 11.7512 19.7307 10.9217C19.7307 10.0919 19.5867 9.2949 19.2987 8.53068C19.0107 7.76668 18.6095 7.06335 18.095 6.42068C18.2864 6.35224 18.4778 6.30779 18.6694 6.28735C18.8607 6.26668 19.0522 6.25635 19.2437 6.25635C20.527 6.25635 21.6256 6.71335 22.5394 7.62735C23.4531 8.54113 23.91 9.63968 23.91 10.923ZM4.39737 23.7437H20.3974V22.7793C20.3974 22.5009 20.3277 22.2531 20.1884 22.036C20.0493 21.8189 19.8284 21.6291 19.5257 21.4667C18.4284 20.9009 17.2985 20.4722 16.136 20.1807C14.9736 19.8893 13.7274 19.7437 12.3974 19.7437C11.0676 19.7437 9.82148 19.8893 8.65904 20.1807C7.49659 20.4722 6.36671 20.9009 5.26937 21.4667C4.96671 21.6291 4.74571 21.8189 4.60637 22.036C4.46704 22.2531 4.39737 22.5009 4.39737 22.7793V23.7437ZM12.3974 13.5897C13.1307 13.5897 13.7585 13.3286 14.2807 12.8063C14.8029 12.2841 15.064 11.6563 15.064 10.923C15.064 10.1897 14.8029 9.5619 14.2807 9.03968C13.7585 8.51746 13.1307 8.25635 12.3974 8.25635C11.664 8.25635 11.0363 8.51746 10.514 9.03968C9.99182 9.5619 9.73071 10.1897 9.73071 10.923C9.73071 11.6563 9.99182 12.2841 10.514 12.8063C11.0363 13.3286 11.664 13.5897 12.3974 13.5897Z" fill="#555555"/>
</svg>
