<svg width="32" height="32" viewBox="0 0 32 32" fill="none" xmlns="http://www.w3.org/2000/svg">
<path d="M7.48708 24.6668V25.9232C7.48708 26.3149 7.34986 26.6479 7.07541 26.9222C6.80097 27.1964 6.46764 27.3335 6.07541 27.3335C5.68341 27.3335 5.35064 27.1964 5.07708 26.9222C4.80353 26.6479 4.66675 26.3149 4.66675 25.9232V16.5182C4.66675 16.3797 4.67575 16.2413 4.69375 16.1028C4.71175 15.9644 4.74197 15.8317 4.78441 15.7048L7.17208 8.95416C7.33186 8.47394 7.62141 8.08383 8.04075 7.78383C8.46008 7.48361 8.92941 7.3335 9.44875 7.3335H22.5514C23.0707 7.3335 23.5401 7.48361 23.9594 7.78383C24.3787 8.08383 24.6683 8.47394 24.8281 8.95416L27.2157 15.7048C27.2582 15.8317 27.2884 15.9644 27.3064 16.1028C27.3244 16.2413 27.3334 16.3797 27.3334 16.5182V25.9232C27.3334 26.3149 27.1962 26.6479 26.9217 26.9222C26.6471 27.1964 26.3137 27.3335 25.9217 27.3335C25.5295 27.3335 25.1966 27.1964 24.9231 26.9222C24.6497 26.6479 24.5131 26.3149 24.5131 25.9232V24.6668H7.48708ZM7.47708 14.1028H24.5231L22.9437 9.60283C22.9095 9.51727 22.8582 9.45105 22.7897 9.40416C22.7213 9.35705 22.6401 9.3335 22.5461 9.3335H9.45408C9.36008 9.3335 9.27886 9.35705 9.21041 9.40416C9.14197 9.45105 9.09064 9.51727 9.05641 9.60283L7.47708 14.1028ZM9.95175 21.1285C10.4369 21.1285 10.8483 20.9586 11.1861 20.6188C11.5236 20.2793 11.6924 19.8669 11.6924 19.3818C11.6924 18.8967 11.5226 18.4853 11.1831 18.1475C10.8433 17.8099 10.4309 17.6412 9.94575 17.6412C9.46064 17.6412 9.0493 17.8109 8.71175 18.1505C8.37397 18.4903 8.20508 18.9027 8.20508 19.3878C8.20508 19.8729 8.37497 20.2843 8.71475 20.6218C9.0543 20.9596 9.46664 21.1285 9.95175 21.1285ZM22.0544 21.1285C22.5395 21.1285 22.9509 20.9586 23.2884 20.6188C23.6262 20.2793 23.7951 19.8669 23.7951 19.3818C23.7951 18.8967 23.6252 18.4853 23.2854 18.1475C22.9459 17.8099 22.5335 17.6412 22.0484 17.6412C21.5633 17.6412 21.1519 17.8109 20.8141 18.1505C20.4765 18.4903 20.3077 18.9027 20.3077 19.3878C20.3077 19.8729 20.4775 20.2843 20.8171 20.6218C21.1569 20.9596 21.5693 21.1285 22.0544 21.1285ZM6.66675 22.6668H25.3334V16.1028H6.66675V22.6668Z" fill="#304674"/>
</svg>
