<svg width="32" height="32" viewBox="0 0 32 32" fill="none" xmlns="http://www.w3.org/2000/svg">
<path d="M7.79192 26.077C6.75103 26.077 5.86737 25.713 5.14092 24.985C4.41448 24.257 4.05126 23.3731 4.05126 22.3333H2.99992C2.65859 22.3333 2.37237 22.2179 2.14126 21.987C1.91037 21.7559 1.79492 21.4697 1.79492 21.1283V8.41033C1.79492 7.73678 2.02826 7.16667 2.49492 6.7C2.96159 6.23333 3.53159 6 4.20492 6H19.9486C20.6115 6 21.1789 6.236 21.6509 6.708C22.1229 7.18 22.3589 7.74744 22.3589 8.41033V11.077H24.6923C25.0738 11.077 25.4354 11.1623 25.7769 11.333C26.1183 11.5037 26.3994 11.7397 26.6203 12.041L29.9639 16.518C30.0444 16.6184 30.1047 16.7289 30.1449 16.8493C30.1849 16.97 30.2049 17.1006 30.2049 17.241V21.1283C30.2049 21.4697 30.0895 21.7559 29.8586 21.987C29.6275 22.2179 29.3413 22.3333 28.9999 22.3333H27.7949C27.7949 23.3731 27.4306 24.257 26.7019 24.985C25.9735 25.713 25.0889 26.077 24.0483 26.077C23.0076 26.077 22.1239 25.713 21.3973 24.985C20.6708 24.257 20.3076 23.3731 20.3076 22.3333H11.5383C11.5383 23.376 11.174 24.2606 10.4456 24.987C9.71714 25.7137 8.83259 26.077 7.79192 26.077ZM7.79492 24.077C8.28381 24.077 8.69659 23.9086 9.03326 23.5717C9.36992 23.235 9.53826 22.8222 9.53826 22.3333C9.53826 21.8444 9.36992 21.4316 9.03326 21.0947C8.69659 20.758 8.28381 20.5897 7.79492 20.5897C7.30603 20.5897 6.89314 20.758 6.55626 21.0947C6.21959 21.4316 6.05126 21.8444 6.05126 22.3333C6.05126 22.8222 6.21959 23.235 6.55626 23.5717C6.89314 23.9086 7.30603 24.077 7.79492 24.077ZM3.79492 20.3333H4.75892C5.0427 19.8393 5.45248 19.4252 5.98826 19.091C6.52426 18.7568 7.12648 18.5897 7.79492 18.5897C8.44603 18.5897 9.04381 18.7547 9.58826 19.0847C10.1327 19.4147 10.5468 19.8309 10.8306 20.3333H20.3589V8.41033C20.3589 8.29056 20.3205 8.19222 20.2436 8.11533C20.1667 8.03844 20.0684 8 19.9486 8H4.20492C4.10248 8 4.00848 8.04278 3.92292 8.12833C3.83759 8.21367 3.79492 8.30767 3.79492 8.41033V20.3333ZM24.0513 24.077C24.5401 24.077 24.9529 23.9086 25.2896 23.5717C25.6265 23.235 25.7949 22.8222 25.7949 22.3333C25.7949 21.8444 25.6265 21.4316 25.2896 21.0947C24.9529 20.758 24.5401 20.5897 24.0513 20.5897C23.5624 20.5897 23.1495 20.758 22.8126 21.0947C22.4759 21.4316 22.3076 21.8444 22.3076 22.3333C22.3076 22.8222 22.4759 23.235 22.8126 23.5717C23.1495 23.9086 23.5624 24.077 24.0513 24.077ZM22.3589 17.6667H28.3333L24.9999 13.2437C24.9573 13.1923 24.9081 13.1517 24.8526 13.1217C24.797 13.0919 24.735 13.077 24.6666 13.077H22.3589V17.6667Z" fill="#555555"/>
</svg>
