<svg width="20" height="21" viewBox="0 0 20 21" fill="none" xmlns="http://www.w3.org/2000/svg">
<path d="M10.0321 16.75C8.28724 16.75 6.8094 16.1447 5.59856 14.934C4.38759 13.7233 3.7821 12.2457 3.7821 10.5013C3.7821 8.75681 4.38759 7.27882 5.59856 6.06729C6.8094 4.85576 8.28724 4.25 10.0321 4.25C11.0064 4.25 11.9284 4.4666 12.7981 4.89979C13.6677 5.33313 14.391 5.94451 14.9679 6.73396V4.875C14.9679 4.69792 15.0279 4.54951 15.1477 4.42979C15.2676 4.30993 15.4161 4.25 15.5931 4.25C15.7704 4.25 15.9188 4.30993 16.0384 4.42979C16.1581 4.54951 16.2179 4.69792 16.2179 4.875V8.59292C16.2179 8.80639 16.1458 8.98528 16.0015 9.12958C15.857 9.27389 15.6781 9.34604 15.4648 9.34604H11.7469C11.5698 9.34604 11.4213 9.28618 11.3015 9.16646C11.1818 9.0466 11.1219 8.89806 11.1219 8.72083C11.1219 8.54375 11.1818 8.39535 11.3015 8.27562C11.4213 8.15604 11.5698 8.09625 11.7469 8.09625H14.4136C13.9744 7.29167 13.3654 6.65785 12.5865 6.19479C11.8077 5.7316 10.9563 5.5 10.0321 5.5C8.64322 5.5 7.46266 5.98611 6.49044 6.95833C5.51822 7.93056 5.0321 9.11111 5.0321 10.5C5.0321 11.8889 5.51822 13.0694 6.49044 14.0417C7.46266 15.0139 8.64322 15.5 10.0321 15.5C11.0006 15.5 11.8872 15.2457 12.6919 14.7371C13.4966 14.2286 14.1063 13.5502 14.5209 12.7019C14.5999 12.5502 14.7161 12.4442 14.8694 12.3838C15.0227 12.3235 15.179 12.32 15.3381 12.3733C15.508 12.4268 15.6269 12.5379 15.6948 12.7067C15.7626 12.8756 15.757 13.0358 15.6779 13.1875C15.1618 14.2665 14.4 15.13 13.3925 15.7779C12.385 16.426 11.2649 16.75 10.0321 16.75Z" fill="#005B90"/>
</svg>
