<svg width="26" height="24" viewBox="0 0 26 24" fill="none" xmlns="http://www.w3.org/2000/svg">
<path d="M2.33325 21.3333H8.11525V10.6666H2.33325V21.3333ZM10.1153 21.3333H15.8846V2.66663H10.1153V21.3333ZM17.8846 21.3333H23.6666V13.3333H17.8846V21.3333ZM0.333252 20.923V11.077C0.333252 10.4141 0.569252 9.84663 1.04125 9.37463C1.51325 8.90263 2.0807 8.66663 2.74359 8.66663H8.11525V3.07696C8.11525 2.41407 8.35125 1.84663 8.82325 1.37463C9.29525 0.902626 9.8627 0.666626 10.5256 0.666626H15.4743C16.1371 0.666626 16.7046 0.902626 17.1766 1.37463C17.6486 1.84663 17.8846 2.41407 17.8846 3.07696V11.3333H23.2563C23.9191 11.3333 24.4866 11.5693 24.9586 12.0413C25.4306 12.5133 25.6666 13.0807 25.6666 13.7436V20.923C25.6666 21.5858 25.4306 22.1533 24.9586 22.6253C24.4866 23.0973 23.9191 23.3333 23.2563 23.3333H2.74359C2.0807 23.3333 1.51325 23.0973 1.04125 22.6253C0.569252 22.1533 0.333252 21.5858 0.333252 20.923Z" fill="#555555"/>
</svg>
