<svg width="24" height="24" viewBox="0 0 24 24" fill="none" xmlns="http://www.w3.org/2000/svg">
<path d="M4.54822 19.5C4.04322 19.5 3.61572 19.325 3.26572 18.975C2.91572 18.625 2.74072 18.1974 2.74072 17.6923V6.30775C2.74072 5.80258 2.91572 5.375 3.26572 5.025C3.61572 4.675 4.04322 4.5 4.54822 4.5H15.933C16.438 4.5 16.8655 4.675 17.2155 5.025C17.5655 5.375 17.7405 5.80258 17.7405 6.30775V10.8848L20.4867 8.1385C20.6342 7.991 20.7999 7.95417 20.9837 8.028C21.1677 8.10167 21.2597 8.24233 21.2597 8.45V15.55C21.2597 15.7577 21.1677 15.8983 20.9837 15.972C20.7999 16.0458 20.6342 16.009 20.4867 15.8615L17.7405 13.1152V17.6923C17.7405 18.1974 17.5655 18.625 17.2155 18.975C16.8655 19.325 16.438 19.5 15.933 19.5H4.54822ZM4.54822 18H15.933C16.0226 18 16.0963 17.9712 16.154 17.9135C16.2118 17.8558 16.2407 17.7821 16.2407 17.6923V6.30775C16.2407 6.21792 16.2118 6.14417 16.154 6.0865C16.0963 6.02883 16.0226 6 15.933 6H4.54822C4.45856 6 4.38489 6.02883 4.32722 6.0865C4.26956 6.14417 4.24072 6.21792 4.24072 6.30775V17.6923C4.24072 17.7821 4.26956 17.8558 4.32722 17.9135C4.38489 17.9712 4.45856 18 4.54822 18Z" fill="#005B90"/>
</svg>
