<svg width="32" height="32" viewBox="0 0 32 32" fill="none" xmlns="http://www.w3.org/2000/svg">
<path d="M4.56728 27.3333C4.34128 27.3333 4.13828 27.2781 3.95828 27.1677C3.77828 27.0572 3.63839 26.9115 3.53861 26.7307C3.43461 26.5511 3.37739 26.3567 3.36695 26.1473C3.3565 25.938 3.41295 25.7307 3.53628 25.5253L14.9506 5.80799C15.0742 5.60266 15.2286 5.45088 15.4139 5.35266C15.5995 5.25443 15.7948 5.20532 15.9999 5.20532C16.2051 5.20532 16.4004 5.25443 16.5859 5.35266C16.7713 5.45088 16.9257 5.60266 17.0493 5.80799L28.4636 25.5253C28.5869 25.7307 28.6434 25.938 28.6329 26.1473C28.6225 26.3567 28.5653 26.5511 28.4613 26.7307C28.3615 26.9115 28.2216 27.0572 28.0416 27.1677C27.8616 27.2781 27.6586 27.3333 27.4326 27.3333H4.56728ZM5.93328 25.3333H26.0666L15.9999 7.99999L5.93328 25.3333ZM15.9999 23.7437C16.3051 23.7437 16.5608 23.6404 16.7673 23.434C16.9737 23.2275 17.0769 22.9718 17.0769 22.6667C17.0769 22.3615 16.9737 22.1058 16.7673 21.8993C16.5608 21.6929 16.3051 21.5897 15.9999 21.5897C15.6948 21.5897 15.4391 21.6929 15.2326 21.8993C15.0262 22.1058 14.9229 22.3615 14.9229 22.6667C14.9229 22.9718 15.0262 23.2275 15.2326 23.434C15.4391 23.6404 15.6948 23.7437 15.9999 23.7437ZM16.0003 20.2563C16.2838 20.2563 16.5213 20.1605 16.7126 19.969C16.9042 19.7772 16.9999 19.5397 16.9999 19.2563V14.5897C16.9999 14.3063 16.9041 14.0689 16.7123 13.8773C16.5205 13.6855 16.2829 13.5897 15.9996 13.5897C15.7161 13.5897 15.4786 13.6855 15.2873 13.8773C15.0957 14.0689 14.9999 14.3063 14.9999 14.5897V19.2563C14.9999 19.5397 15.0958 19.7772 15.2876 19.969C15.4794 20.1605 15.7169 20.2563 16.0003 20.2563Z" fill="#FF0E0E"/>
</svg>
